<svg xmlns="http://www.w3.org/2000/svg" viewBox="0 0 64.97 17.14"><g id="レイヤー_2" data-name="レイヤー 2"><g id="レイヤー_1-2" data-name="レイヤー 1"><path d="M4.71,0A4.3,4.3,0,0,1,7.86,1.31a4.27,4.27,0,0,1,1.3,3.14v.07a4.29,4.29,0,0,1-1.3,3.15A4.29,4.29,0,0,1,4.71,9H2.2V16a1.1,1.1,0,0,1-.32.79,1.09,1.09,0,0,1-.77.32A1.09,1.09,0,0,1,0,16V1.09A1.06,1.06,0,0,1,.32.32,1.1,1.1,0,0,1,1.11,0ZM7,4.45a2.14,2.14,0,0,0-.67-1.59A2.16,2.16,0,0,0,4.71,2.2H2.2V6.77H4.71a2.15,2.15,0,0,0,1.58-.65A2.16,2.16,0,0,0,7,4.52Z"/><path d="M17.51,5.14a1.13,1.13,0,0,1,1.11,1.11,1,1,0,0,1-.33.77,1.06,1.06,0,0,1-.78.32h0A2.7,2.7,0,0,0,14.81,10v6a1.09,1.09,0,0,1-1.1,1.11,1.12,1.12,0,0,1-.79-.32,1.09,1.09,0,0,1-.31-.79V6.22a1,1,0,0,1,.31-.77,1.09,1.09,0,0,1,.79-.33,1.07,1.07,0,0,1,.69.24,1.11,1.11,0,0,1,.38.62,4.7,4.7,0,0,1,2.72-.84Z"/><path d="M26.45,5.1a4.71,4.71,0,0,1,3.46,1.44A4.74,4.74,0,0,1,31.34,10v2.24a4.9,4.9,0,0,1-4.89,4.9h-.08a4.92,4.92,0,0,1-4.9-4.9V10a4.71,4.71,0,0,1,1.44-3.46A4.71,4.71,0,0,1,26.37,5.1ZM29.14,10a2.71,2.71,0,0,0-2.69-2.7h-.08a2.7,2.7,0,0,0-2.7,2.7v2.24a2.63,2.63,0,0,0,.79,1.91,2.59,2.59,0,0,0,1.91.79h.08a2.71,2.71,0,0,0,2.69-2.7Z"/><path d="M39.56,2.75a2.58,2.58,0,0,0-1.84.74,2.59,2.59,0,0,0-.84,1.79h1.77a1,1,0,0,1,.77.33,1.1,1.1,0,0,1,0,1.55,1,1,0,0,1-.77.33H36.87V16a1.1,1.1,0,0,1-.32.79,1.09,1.09,0,0,1-.77.32A1.09,1.09,0,0,1,34.67,16V5.45A4.73,4.73,0,0,1,36.1,2,4.71,4.71,0,0,1,39.56.55h0a1.06,1.06,0,0,1,.78.32,1.07,1.07,0,0,1,.33.78,1.09,1.09,0,0,1-.33.79,1.06,1.06,0,0,1-.78.31Zm3.93.07a1.23,1.23,0,0,0-1.23-1.24,1.23,1.23,0,0,0-.89.36,1.21,1.21,0,0,0-.36.88,1.19,1.19,0,0,0,.36.87,1.2,1.2,0,0,0,.89.37,1.19,1.19,0,0,0,.87-.37A1.19,1.19,0,0,0,43.49,2.82ZM42.26,17.13a1.09,1.09,0,0,0,.77-.32,1.1,1.1,0,0,0,.32-.79V6.22a1.1,1.1,0,0,0-2.2,0V16a1.09,1.09,0,0,0,1.11,1.11Z"/><path d="M48.7.87a1.1,1.1,0,0,1,.32.78V12.24a2.7,2.7,0,0,0,2.69,2.7h0a1,1,0,0,1,.78.32,1,1,0,0,1,.33.77,1.11,1.11,0,0,1-1.11,1.11h0a4.9,4.9,0,0,1-4.89-4.9V1.65a1.06,1.06,0,0,1,.32-.78,1.11,1.11,0,0,1,1.56,0Z"/><path d="M65,10a2.16,2.16,0,0,1-.31,1.11,2,2,0,0,1-1.89,1.09H57.3A2.68,2.68,0,0,0,60,14.94h.08a2.55,2.55,0,0,0,2.18-1.12,1,1,0,0,1,1.23-.38,1,1,0,0,1,.7.71,1.07,1.07,0,0,1-.17,1,4.65,4.65,0,0,1-3.94,2H60a4.9,4.9,0,0,1-4.89-4.85V10A4.9,4.9,0,0,1,60,5.15h.08a4.91,4.91,0,0,1,4.53,3,4.24,4.24,0,0,1,.28,1A3.84,3.84,0,0,1,65,10ZM57.3,10h5.45A2.67,2.67,0,0,0,62,8.14a2.62,2.62,0,0,0-1.9-.79H60A2.68,2.68,0,0,0,57.3,10Z"/></g></g></svg>