<svg xmlns="http://www.w3.org/2000/svg" viewBox="0 0 58.6 17.29"><g id="レイヤー_2" data-name="レイヤー 2"><g id="レイヤー_1-2" data-name="レイヤー 1"><path d="M14.9,1.28q-2.52,15.17-2.53,15.2a1.08,1.08,0,0,1-.58.68,1.09,1.09,0,0,1-1.47-.47L7.46,11.08,4.55,16.74A1.1,1.1,0,0,1,3,17.09a1.15,1.15,0,0,1-.45-.72L0,1.28A1.08,1.08,0,0,1,.2.46,1.1,1.1,0,0,1,.92,0,1.09,1.09,0,0,1,1.74.2a1.05,1.05,0,0,1,.44.72l2,11.85L6.48,8.16a1,1,0,0,1,1-.6,1,1,0,0,1,1,.6l2.35,4.61,2-11.85A1,1,0,0,1,13.18.2,1.08,1.08,0,0,1,14,0a1.1,1.1,0,0,1,.71.44A1.13,1.13,0,0,1,14.9,1.28Z"/><path d="M22.77,5.3a4.88,4.88,0,0,1,4.88,4.88v2.23a4.88,4.88,0,0,1-4.88,4.88h-.08a4.88,4.88,0,0,1-4.88-4.88V10.18A4.88,4.88,0,0,1,22.69,5.3Zm2.69,4.88a2.56,2.56,0,0,0-.8-1.9,2.55,2.55,0,0,0-1.89-.79h-.08A2.68,2.68,0,0,0,20,10.18v2.23a2.68,2.68,0,0,0,2.68,2.69h.08a2.71,2.71,0,0,0,2.69-2.69Z"/><path d="M35.85,5.34a1,1,0,0,1,.77.32,1.08,1.08,0,0,1,0,1.55,1.06,1.06,0,0,1-.77.32h0a2.7,2.7,0,0,0-2.69,2.68v6a1.1,1.1,0,1,1-2.19,0V6.41a1.11,1.11,0,0,1,1.1-1.1,1,1,0,0,1,.68.25,1,1,0,0,1,.39.61,4.64,4.64,0,0,1,2.71-.83Z"/><path d="M47.24,15.55a1.08,1.08,0,0,1-1,1.73,1,1,0,0,1-.72-.43l-3.29-4.33v3.67a1.09,1.09,0,0,1-1.09,1.1,1.08,1.08,0,0,1-.78-.32,1.1,1.1,0,0,1-.32-.78V1.82a1.06,1.06,0,0,1,.32-.77,1.05,1.05,0,0,1,.78-.33,1,1,0,0,1,.77.33,1,1,0,0,1,.32.77V8.93l3.15-3.15a1.06,1.06,0,0,1,.78-.32,1.09,1.09,0,0,1,1.08,1.08,1,1,0,0,1-.32.76l-3.36,3.38Z"/><path d="M54.47,9.84a4.1,4.1,0,0,1,3.23,1.4,3.35,3.35,0,0,1,.76,3.26,3.54,3.54,0,0,1-1.47,2,4.49,4.49,0,0,1-2.56.77h0a4.36,4.36,0,0,1-2.25-.6,3.81,3.81,0,0,1-1.49-1.57,1,1,0,0,1,.07-1,1.27,1.27,0,0,1,2.14.16,1.6,1.6,0,0,0,1.53.87h.06a1.7,1.7,0,0,0,1.27-.52,1.38,1.38,0,0,0,.41-1.22,1.42,1.42,0,0,0-.59-1A1.93,1.93,0,0,0,54.4,12a3.74,3.74,0,0,1-2.92-1.35,3,3,0,0,1-.62-3A3.23,3.23,0,0,1,52.2,5.91a4.07,4.07,0,0,1,2.29-.67h0A3.61,3.61,0,0,1,57.81,7a1,1,0,0,1,0,1.09,1.16,1.16,0,0,1-1,.54A1.22,1.22,0,0,1,55.67,8a1.27,1.27,0,0,0-1.15-.6h0a1.47,1.47,0,0,0-.85.26,1.1,1.1,0,0,0-.48.69,1,1,0,0,0,.28,1A1.29,1.29,0,0,0,54.47,9.84Z"/></g></g></svg>