<svg id="レイヤー_1" data-name="レイヤー 1" xmlns="http://www.w3.org/2000/svg" xmlns:xlink="http://www.w3.org/1999/xlink" viewBox="0 0 320 40"><defs><style>.cls-1{fill:url(#名称未設定グラデーション);}.cls-2{isolation:isolate;}.cls-3{fill:#e6e6e6;}.cls-4{fill:#404ef4;}</style><linearGradient id="名称未設定グラデーション" x1="114.04" y1="-65.95" x2="205.96" y2="93.27" gradientTransform="matrix(1, 0, 0, -1, 0, 39.89)" gradientUnits="userSpaceOnUse"><stop offset="0" stop-color="#fff"/><stop offset="0.73" stop-color="blue" stop-opacity="0.5"/><stop offset="0.95" stop-color="blue" stop-opacity="0"/></linearGradient></defs><title>logo</title><path class="cls-1" d="M0,12.46S52,41.38,160,24.85,320,12.46,320,12.46V40H0Z"/><g class="cls-2"><g class="cls-2"><path class="cls-3" d="M21.28,20.65H30.8v-7a5.14,5.14,0,0,0-.41-2.18c-.27-.59-.92-.89-1.94-.89h-.14v-.47h9.47v.47q-1.59,0-2,.84a4.72,4.72,0,0,0-.45,2.23V30.1a7.42,7.42,0,0,0,.12,1.39,2,2,0,0,0,2.23,1.63h.14v.46H28.31v-.46c1.07,0,1.75-.28,2.05-.83a4.58,4.58,0,0,0,.44-2.19V22.21H21.28V30.1a7.33,7.33,0,0,0,.13,1.4,2.06,2.06,0,0,0,.64,1.13,2.29,2.29,0,0,0,1.59.49h.13v.46H14.31v-.46c1.06,0,1.74-.28,2-.83a4.57,4.57,0,0,0,.45-2.19V13.69a5.08,5.08,0,0,0-.42-2.18c-.28-.6-.92-.89-1.93-.89h-.14v-.47h9.46v.47c-1,0-1.71.27-2,.83a4.6,4.6,0,0,0-.47,2.24Z"/><path class="cls-3" d="M50.17,9.93l6.77,20.26a4.64,4.64,0,0,0,1.29,2.14,4.1,4.1,0,0,0,1.81.79v.46H50.5v-.46c1.3-.09,2-.56,2-1.43a3.9,3.9,0,0,0-.06-.58c0-.25-.09-.52-.16-.8s-.11-.45-.13-.51l-1.68-5h-6L43,29.6a5.33,5.33,0,0,0-.27,1.56,1.65,1.65,0,0,0,.55,1.46,3.21,3.21,0,0,0,1.3.5v.46h-6v-.46a2.79,2.79,0,0,0,1.76-1,9.52,9.52,0,0,0,1.59-3.36l5.72-18.8ZM44.86,23.26h5l-2.6-7.89Z"/></g><g class="cls-2"><path class="cls-3" d="M68.49,20.36l.61-.89a2.09,2.09,0,0,1,1.6-1.13,1.32,1.32,0,0,1,1.12.7,2.72,2.72,0,0,1,.44,1.48,1.69,1.69,0,0,1-.45,1.23,1.38,1.38,0,0,1-1,.46A3.89,3.89,0,0,1,69.72,22a9.38,9.38,0,0,0-1.21-.34,3.18,3.18,0,0,0-.8,0,2,2,0,0,1-.23.84,4.11,4.11,0,0,0,1.54,1,4.39,4.39,0,0,1,1.37.75,1.63,1.63,0,0,1,.5,1.31,2.1,2.1,0,0,1-1.9,2,1.35,1.35,0,0,1-.94-.47,2.85,2.85,0,0,1-.52-1.84c0-.86-.06-1.41-.1-1.67a2.67,2.67,0,0,0-.28-.84l-.4.09-.14-.05a.82.82,0,0,0-.2,0,5.26,5.26,0,0,0-.3,1.67c-.07.77-.13,1.35-.2,1.73a2.33,2.33,0,0,1-.42,1,1.1,1.1,0,0,1-.93.43A1.83,1.83,0,0,1,63.29,27a1.8,1.8,0,0,1-.6-1.32,1.73,1.73,0,0,1,.53-1.37,7.38,7.38,0,0,1,1.82-1,2.65,2.65,0,0,0,.61-.34,1.68,1.68,0,0,0,.4-.44,1.3,1.3,0,0,1-.26-.84l-.16,0-.25,0a8.63,8.63,0,0,0-1.38.27q-1.11.27-1.23.27a1.29,1.29,0,0,1-1.13-.54,2,2,0,0,1-.37-1.15A2.73,2.73,0,0,1,61.68,19a1.25,1.25,0,0,1,1.09-.7c.59,0,1.15.42,1.68,1.25s.78,1.16.9,1.29a1.47,1.47,0,0,0,.57.36,1.1,1.1,0,0,1,.64-.56,3.59,3.59,0,0,0-.21-.74c-.11-.25-.35-.7-.72-1.37A3.67,3.67,0,0,1,65.1,17a2.16,2.16,0,0,1,.35-1.15,1.43,1.43,0,0,1,1.33-.59,1.4,1.4,0,0,1,1.32.59,2.23,2.23,0,0,1,.33,1.08,4.25,4.25,0,0,1-.64,1.85c-.36.67-.57,1.1-.65,1.28a2.5,2.5,0,0,0-.17.67,1.19,1.19,0,0,1,.61.56A3.14,3.14,0,0,0,68.49,20.36Z"/></g><g class="cls-2"><path class="cls-3" d="M80.86,10.15l12.29,15.1V14.53a4.26,4.26,0,0,0-.73-2.89,4,4,0,0,0-2.26-1v-.47h7v.47a2.55,2.55,0,0,0-2.44,2.08,9,9,0,0,0-.16,1.83V33.84H94l-14.74-18V29a6,6,0,0,0,.61,2.83,2.57,2.57,0,0,0,2.25,1.31v.46h-7.2v-.46q3-.28,3-3.45V14.16a1.11,1.11,0,0,1-.22-.22c-.08-.1-.22-.25-.41-.46l-.52-.57a6.32,6.32,0,0,0-3.22-2.29v-.47Z"/><path class="cls-3" d="M108.88,9.93l6.77,20.26a4.73,4.73,0,0,0,1.29,2.14,4.14,4.14,0,0,0,1.82.79v.46h-9.55v-.46c1.3-.09,2-.56,2-1.43a3.06,3.06,0,0,0-.07-.58c0-.25-.09-.52-.16-.8s-.11-.45-.13-.51l-1.68-5h-6l-1.44,4.78a5.33,5.33,0,0,0-.27,1.56,1.65,1.65,0,0,0,.55,1.46,3.27,3.27,0,0,0,1.3.5v.46h-6v-.46a2.84,2.84,0,0,0,1.77-1,9.72,9.72,0,0,0,1.58-3.36l5.72-18.8Zm-5.3,13.33h5L106,15.37Z"/><path class="cls-3" d="M140.57,9.93l6.77,20.26a4.64,4.64,0,0,0,1.29,2.14,4.14,4.14,0,0,0,1.82.79v.46H140.9v-.46c1.3-.09,2-.56,2-1.43a4.2,4.2,0,0,0-.07-.58c0-.25-.09-.52-.16-.8s-.11-.45-.13-.51l-1.68-5h-6l-1.44,4.78a5.33,5.33,0,0,0-.27,1.56,1.65,1.65,0,0,0,.55,1.46,3.27,3.27,0,0,0,1.3.5v.46h-6.05v-.46a2.84,2.84,0,0,0,1.77-1,9.72,9.72,0,0,0,1.58-3.36L138,9.93Zm-5.31,13.33h5l-2.59-7.89Z"/><path class="cls-3" d="M165,33.29l1.71,1.26a3.32,3.32,0,0,0,.83.5,2.58,2.58,0,0,0,1,.22,2.79,2.79,0,0,0,2-1.2l.42.35A11,11,0,0,1,169,37.13a4.23,4.23,0,0,1-3.16,1.24,5.34,5.34,0,0,1-2.33-.53,21,21,0,0,1-2.83-1.72q-2.59-1.86-4-3a20.68,20.68,0,0,1-2.11-1.27,8.27,8.27,0,0,1-1.57-1.53,11.16,11.16,0,0,1-2-3.9,16,16,0,0,1-.65-4.5,14.58,14.58,0,0,1,.7-4.55,11.58,11.58,0,0,1,2-3.85,9.43,9.43,0,0,1,3.33-2.63,10.1,10.1,0,0,1,4.48-1,10,10,0,0,1,4.42,1,9.54,9.54,0,0,1,3.32,2.6,11.61,11.61,0,0,1,2,3.77,13.9,13.9,0,0,1,.68,4.36,15.92,15.92,0,0,1-.31,3.11,13.38,13.38,0,0,1-.94,3,11.33,11.33,0,0,1-1.49,2.49A9,9,0,0,1,166.75,32a13.39,13.39,0,0,1-2,1.11Zm1.6-11.8c0-.87,0-1.8-.13-2.81a16,16,0,0,0-.66-3.23,7.4,7.4,0,0,0-1.73-3,4.29,4.29,0,0,0-3.23-1.24,4.44,4.44,0,0,0-4.58,3.34,24.13,24.13,0,0,0-1.11,7.63,23.91,23.91,0,0,0,1,7,4.41,4.41,0,0,0,4.63,3.41,4.34,4.34,0,0,0,2.57-.81,5.39,5.39,0,0,0,1.73-1.94C166.11,28,166.6,25.23,166.6,21.49Z"/><path class="cls-3" d="M189,33.58V29.14H189q-2.2,4.7-6.56,4.7a6.79,6.79,0,0,1-3.94-1.2,7.22,7.22,0,0,1-2.58-3,15.66,15.66,0,0,1-.87-6.09V13.65a4,4,0,0,0-.52-2.26,2.19,2.19,0,0,0-2-.77v-.47H182v.47c-1,0-1.71.27-2,.82a4.5,4.5,0,0,0-.47,2.21V24.1a11.08,11.08,0,0,0,.48,3.64,5,5,0,0,0,1,1.67,4.12,4.12,0,0,0,1.46,1.07,4.26,4.26,0,0,0,1.73.36,4.47,4.47,0,0,0,1.8-.38,5.21,5.21,0,0,0,2.6-2.78,13.48,13.48,0,0,0,.49-4.26V13.65a3.82,3.82,0,0,0-.57-2.37,2.38,2.38,0,0,0-1.92-.7v-.43H196v.47c-1,0-1.71.27-2,.81a4.36,4.36,0,0,0-.47,2.22V30.1a4,4,0,0,0,.53,2.3,2.26,2.26,0,0,0,2,.75v.43Z"/><path class="cls-3" d="M208.34,9.93l6.77,20.26a4.56,4.56,0,0,0,1.29,2.14,4.1,4.1,0,0,0,1.81.79v.46h-9.54v-.46c1.3-.09,2-.56,2-1.43a4.2,4.2,0,0,0-.07-.58c0-.25-.09-.52-.16-.8s-.11-.45-.13-.51l-1.68-5h-6l-1.44,4.78a5.33,5.33,0,0,0-.27,1.56,1.65,1.65,0,0,0,.55,1.46,3.21,3.21,0,0,0,1.3.5v.46h-6.05v-.46a2.79,2.79,0,0,0,1.76-1A9.52,9.52,0,0,0,200,28.73l5.72-18.8ZM203,23.26h5l-2.59-7.89Z"/><path class="cls-3" d="M226.57,22.61h-.64V30.1a4.45,4.45,0,0,0,.34,2,1.71,1.71,0,0,0,.83.85,4.44,4.44,0,0,0,1.32.21v.43H219v-.46c1.06,0,1.74-.28,2-.83a4.57,4.57,0,0,0,.45-2.19V13.69a3.65,3.65,0,0,0-.59-2.38,2.36,2.36,0,0,0-1.9-.69v-.47H229.4a8.29,8.29,0,0,1,3.63.75A5.47,5.47,0,0,1,235.41,13a6,6,0,0,1,.82,3.13,6,6,0,0,1-.52,2.54,5.08,5.08,0,0,1-1.4,1.83,6.47,6.47,0,0,1-2,1.1,10.26,10.26,0,0,1,2.74,3.66L237.49,30a11.7,11.7,0,0,0,1.13,1.9,3.43,3.43,0,0,0,.92.9,2.73,2.73,0,0,0,.86.29v.46h-6.5c-.63-1.33-1.11-2.38-1.45-3.16-1.07-2.45-1.86-4.16-2.35-5.11a6.45,6.45,0,0,0-1.53-2.07A3.09,3.09,0,0,0,226.57,22.61ZM227,11.46h-1.09V21.3h.91A4.55,4.55,0,0,0,230.39,20a5.44,5.44,0,0,0,1.19-3.78,5.76,5.76,0,0,0-.52-2.58A3.51,3.51,0,0,0,229.53,12,5.06,5.06,0,0,0,227,11.46Z"/><path class="cls-3" d="M241.08,10.58v-.43h9.47v.47c-1.05,0-1.73.27-2,.83a4.52,4.52,0,0,0-.46,2.2V30.1a7.46,7.46,0,0,0,.12,1.4,2.13,2.13,0,0,0,.65,1.12,2.28,2.28,0,0,0,1.61.5h.11v.46h-9.47v-.46c1,0,1.72-.28,2-.83a4.45,4.45,0,0,0,.46-2.19V13.65a3.59,3.59,0,0,0-.61-2.34A2.32,2.32,0,0,0,241.08,10.58Z"/><path class="cls-3" d="M267.52,33.58V29.14h-.06c-1.46,3.13-3.65,4.7-6.55,4.7a6.79,6.79,0,0,1-3.94-1.2,7.22,7.22,0,0,1-2.58-3,15.66,15.66,0,0,1-.87-6.09V13.65a4.1,4.1,0,0,0-.52-2.26,2.19,2.19,0,0,0-2-.77v-.47h9.46v.47c-1,0-1.71.27-2,.82a4.5,4.5,0,0,0-.47,2.21V24.1a11.08,11.08,0,0,0,.48,3.64,5,5,0,0,0,1,1.67,4.18,4.18,0,0,0,1.45,1.07,4.33,4.33,0,0,0,1.73.36,4.48,4.48,0,0,0,1.81-.38,5.21,5.21,0,0,0,2.6-2.78,13.48,13.48,0,0,0,.49-4.26V13.65a3.82,3.82,0,0,0-.57-2.37,2.39,2.39,0,0,0-1.92-.7v-.43h9.47v.47c-1,0-1.71.27-2,.81a4.36,4.36,0,0,0-.47,2.22V30.1a3.93,3.93,0,0,0,.53,2.3,2.25,2.25,0,0,0,2,.75v.43Z"/><path class="cls-3" d="M300.92,10.15v.47a5.25,5.25,0,0,0-1.31.23,1.54,1.54,0,0,0-.85.76,3.13,3.13,0,0,0-.25,1.77l1.11,15.73a10.32,10.32,0,0,0,.4,2.44,2,2,0,0,0,.7,1.06,4.89,4.89,0,0,0,1.32.51v.46h-9.25v-.46a2.51,2.51,0,0,0,1.83-.72,3.62,3.62,0,0,0,.53-2.7l-1-14.92h-.05l-6.58,18.8h-.48L280.27,15.4h-.06l-.89,13.06a7.68,7.68,0,0,0,.23,2.95,2.34,2.34,0,0,0,1,1.34,3.85,3.85,0,0,0,1.42.37v.46h-6.84v-.46a2.35,2.35,0,0,0,2-1.21,9.24,9.24,0,0,0,.9-3.71l1.35-14.82a4.87,4.87,0,0,0-3.47-2.76v-.47h7.28L289,25.57l5.4-15.42Z"/></g></g><g class="cls-2"><g class="cls-2"><path class="cls-4" d="M19,19.06h9.52v-7a5.13,5.13,0,0,0-.41-2.17c-.27-.59-.92-.89-1.94-.89H26V8.56H35.5V9q-1.59,0-2,.84A4.7,4.7,0,0,0,33,12.09V28.51a7.42,7.42,0,0,0,.12,1.39A2.12,2.12,0,0,0,33.78,31a2.2,2.2,0,0,0,1.58.5h.14V32H26v-.46c1.07,0,1.75-.28,2-.83a4.58,4.58,0,0,0,.44-2.19V20.62H19v7.89a7.52,7.52,0,0,0,.13,1.41A2.07,2.07,0,0,0,19.77,31a2.29,2.29,0,0,0,1.59.49h.13V32H12v-.46c1.06,0,1.74-.28,2-.83a4.57,4.57,0,0,0,.45-2.19V12.09a5.06,5.06,0,0,0-.42-2.17c-.28-.6-.92-.89-1.93-.89H12V8.56h9.46V9c-1,0-1.71.27-2,.83A4.59,4.59,0,0,0,19,12.09Z"/><path class="cls-4" d="M47.89,8.34,54.66,28.6A4.56,4.56,0,0,0,56,30.74a4.1,4.1,0,0,0,1.81.79V32H48.22v-.46c1.3-.09,2-.56,2-1.43a3.9,3.9,0,0,0-.06-.58c0-.25-.09-.52-.16-.8s-.11-.45-.13-.52l-1.68-5h-6L40.68,28a5.33,5.33,0,0,0-.27,1.56A1.65,1.65,0,0,0,41,31a3.21,3.21,0,0,0,1.3.5V32h-6v-.46a2.84,2.84,0,0,0,1.76-1,9.52,9.52,0,0,0,1.59-3.36l5.72-18.8ZM42.58,21.67h5L45,13.78Z"/></g><g class="cls-2"><path class="cls-4" d="M66.21,18.77l.61-.89a2.09,2.09,0,0,1,1.6-1.13,1.32,1.32,0,0,1,1.12.7A2.72,2.72,0,0,1,70,18.93a1.69,1.69,0,0,1-.45,1.23,1.39,1.39,0,0,1-1,.46,3.9,3.9,0,0,1-1.06-.19,9.38,9.38,0,0,0-1.21-.34,3.18,3.18,0,0,0-.8,0,1.9,1.9,0,0,1-.24.84,4.23,4.23,0,0,0,1.55,1,4.51,4.51,0,0,1,1.37.75,1.63,1.63,0,0,1,.5,1.31A1.86,1.86,0,0,1,68,25.43a1.83,1.83,0,0,1-1.27.6,1.35,1.35,0,0,1-.94-.47,2.85,2.85,0,0,1-.52-1.84c0-.86-.06-1.41-.1-1.67a2.67,2.67,0,0,0-.28-.84l-.4.09-.14-.05a.82.82,0,0,0-.2,0,5.26,5.26,0,0,0-.3,1.67c-.07.77-.13,1.35-.2,1.73a2.33,2.33,0,0,1-.42,1,1.1,1.1,0,0,1-.93.43,2.05,2.05,0,0,1-1.87-1.91,1.73,1.73,0,0,1,.53-1.37,7.38,7.38,0,0,1,1.82-1,2.65,2.65,0,0,0,.61-.34,1.68,1.68,0,0,0,.4-.44,1.3,1.3,0,0,1-.26-.84l-.16,0-.25,0a8.63,8.63,0,0,0-1.38.27q-1.11.27-1.23.27a1.29,1.29,0,0,1-1.13-.54A2,2,0,0,1,59,18.9a2.73,2.73,0,0,1,.41-1.45,1.25,1.25,0,0,1,1.09-.7c.59,0,1.15.42,1.68,1.25s.78,1.16.9,1.29a1.47,1.47,0,0,0,.57.36,1.1,1.1,0,0,1,.64-.56,3.59,3.59,0,0,0-.21-.74c-.11-.25-.35-.7-.72-1.37a3.67,3.67,0,0,1-.53-1.62,2.16,2.16,0,0,1,.35-1.15,1.43,1.43,0,0,1,1.33-.59,1.4,1.4,0,0,1,1.32.59,2.23,2.23,0,0,1,.33,1.08,4.25,4.25,0,0,1-.64,1.85c-.36.68-.57,1.1-.65,1.28a2.5,2.5,0,0,0-.17.67,1.19,1.19,0,0,1,.61.56A3.14,3.14,0,0,0,66.21,18.77Z"/></g><g class="cls-2"><path class="cls-4" d="M78.58,8.56l12.29,15.1V12.94a4.26,4.26,0,0,0-.73-2.89,4,4,0,0,0-2.26-1V8.56h7V9a2.55,2.55,0,0,0-2.44,2.08,9,9,0,0,0-.16,1.83v19.3h-.51L77,14.21V27.39a6,6,0,0,0,.61,2.83,2.57,2.57,0,0,0,2.25,1.31V32h-7.2v-.46q3-.29,3-3.45V12.57a1.11,1.11,0,0,1-.22-.22c-.08-.1-.22-.25-.41-.46l-.52-.57A6.26,6.26,0,0,0,71.27,9V8.56Z"/><path class="cls-4" d="M106.6,8.34l6.77,20.26a4.73,4.73,0,0,0,1.29,2.14,4.14,4.14,0,0,0,1.82.79V32h-9.55v-.46c1.3-.09,2-.56,2-1.43a3.9,3.9,0,0,0-.06-.58c0-.25-.1-.52-.17-.8l-.13-.52-1.68-5h-6L99.4,28a5.06,5.06,0,0,0-.28,1.56A1.65,1.65,0,0,0,99.67,31a3.27,3.27,0,0,0,1.3.5V32h-6v-.46a2.89,2.89,0,0,0,1.77-1,9.72,9.72,0,0,0,1.58-3.36L104,8.34Zm-5.3,13.33h5l-2.6-7.89Z"/><path class="cls-4" d="M138.29,8.34l6.77,20.26a4.64,4.64,0,0,0,1.29,2.14,4.14,4.14,0,0,0,1.82.79V32h-9.55v-.46c1.3-.09,2-.56,2-1.43a3.06,3.06,0,0,0-.07-.58c0-.25-.09-.52-.16-.8s-.11-.45-.13-.52l-1.68-5h-6L131.08,28a5.33,5.33,0,0,0-.27,1.56,1.65,1.65,0,0,0,.55,1.46,3.27,3.27,0,0,0,1.3.5V32h-6v-.46a2.89,2.89,0,0,0,1.77-1A9.72,9.72,0,0,0,130,27.14l5.72-18.8ZM133,21.67h5l-2.59-7.89Z"/><path class="cls-4" d="M162.72,31.7,164.43,33a3.32,3.32,0,0,0,.83.5,2.58,2.58,0,0,0,1,.21,2.77,2.77,0,0,0,2-1.19l.42.35a11,11,0,0,1-1.94,2.71,4.23,4.23,0,0,1-3.16,1.24,5.34,5.34,0,0,1-2.33-.53,21,21,0,0,1-2.83-1.72q-2.59-1.86-4-3a20.68,20.68,0,0,1-2.11-1.27,8.27,8.27,0,0,1-1.57-1.53,11.16,11.16,0,0,1-2-3.9,16,16,0,0,1-.65-4.5,14.58,14.58,0,0,1,.7-4.55,11.58,11.58,0,0,1,2-3.85,9.43,9.43,0,0,1,3.33-2.63,10.1,10.1,0,0,1,4.48-1,10,10,0,0,1,4.42,1,9.54,9.54,0,0,1,3.32,2.6,11.61,11.61,0,0,1,2,3.77,13.91,13.91,0,0,1,.69,4.36,15.87,15.87,0,0,1-.32,3.11,13.55,13.55,0,0,1-.94,3,11.33,11.33,0,0,1-1.49,2.49,9.28,9.28,0,0,1-1.89,1.82,13.39,13.39,0,0,1-2,1.11Zm1.6-11.8c0-.87,0-1.8-.13-2.81a15.86,15.86,0,0,0-.66-3.23,7.24,7.24,0,0,0-1.74-3,4.26,4.26,0,0,0-3.22-1.24A4.44,4.44,0,0,0,154,13a24.13,24.13,0,0,0-1.11,7.63,23.91,23.91,0,0,0,1,7,4.75,4.75,0,0,0,7.21,2.6,5.59,5.59,0,0,0,1.73-1.94C163.83,26.41,164.32,23.64,164.32,19.9Z"/><path class="cls-4" d="M186.72,32V27.55h-.05q-2.21,4.69-6.55,4.69a6.79,6.79,0,0,1-4-1.19,7.28,7.28,0,0,1-2.58-3,15.66,15.66,0,0,1-.87-6.09V12.06a4.1,4.1,0,0,0-.52-2.26,2.19,2.19,0,0,0-2-.77V8.56h9.46V9c-1,0-1.71.27-2,.82a4.5,4.5,0,0,0-.47,2.21V22.51a11.08,11.08,0,0,0,.48,3.64,5,5,0,0,0,1,1.67,4.18,4.18,0,0,0,1.45,1.07,4.37,4.37,0,0,0,3.54,0,4.8,4.8,0,0,0,1.55-1.12,5,5,0,0,0,1-1.65,13.48,13.48,0,0,0,.49-4.26V12.06a3.82,3.82,0,0,0-.57-2.37,2.38,2.38,0,0,0-1.92-.7V8.56h9.47V9c-1,0-1.71.27-2,.81a4.47,4.47,0,0,0-.47,2.22V28.51a4,4,0,0,0,.53,2.3,2.26,2.26,0,0,0,2,.75V32Z"/><path class="cls-4" d="M206.06,8.34l6.77,20.26a4.64,4.64,0,0,0,1.29,2.14,4.09,4.09,0,0,0,1.82.79V32h-9.55v-.46c1.3-.09,2-.56,2-1.43a3.9,3.9,0,0,0-.06-.58c0-.25-.09-.52-.16-.8L208,28.2l-1.68-5h-6L198.85,28a5.33,5.33,0,0,0-.27,1.56,1.65,1.65,0,0,0,.55,1.46,3.21,3.21,0,0,0,1.3.5V32h-6.05v-.46a2.84,2.84,0,0,0,1.76-1,9.52,9.52,0,0,0,1.59-3.36l5.72-18.8Zm-5.31,13.33h5l-2.6-7.89Z"/><path class="cls-4" d="M224.29,21h-.64v7.49a4.45,4.45,0,0,0,.34,2,1.71,1.71,0,0,0,.83.85,4.44,4.44,0,0,0,1.32.21V32h-9.47v-.46c1.06,0,1.74-.28,2-.83a4.57,4.57,0,0,0,.45-2.19V12.09a3.64,3.64,0,0,0-.59-2.37,2.36,2.36,0,0,0-1.9-.69V8.56h10.45a8.29,8.29,0,0,1,3.63.75,5.47,5.47,0,0,1,2.38,2.12,6,6,0,0,1,.82,3.13,6,6,0,0,1-.52,2.54,5.08,5.08,0,0,1-1.4,1.83,6.47,6.47,0,0,1-2,1.1,10.26,10.26,0,0,1,2.74,3.66l2.41,4.75a11.7,11.7,0,0,0,1.13,1.9,3.22,3.22,0,0,0,.92.89,2.51,2.51,0,0,0,.86.3V32h-6.5c-.63-1.32-1.11-2.38-1.45-3.16-1.07-2.45-1.86-4.16-2.35-5.11a6.45,6.45,0,0,0-1.53-2.07A3.09,3.09,0,0,0,224.29,21Zm.45-11.15h-1.09v9.84h.91a4.55,4.55,0,0,0,3.55-1.31,5.44,5.44,0,0,0,1.19-3.78,5.76,5.76,0,0,0-.52-2.58,3.58,3.58,0,0,0-1.53-1.62A5.18,5.18,0,0,0,224.74,9.87Z"/><path class="cls-4" d="M238.8,9V8.56h9.47V9c-1.05,0-1.73.27-2,.83a4.52,4.52,0,0,0-.46,2.2V28.51a7.46,7.46,0,0,0,.12,1.4,2.13,2.13,0,0,0,.65,1.12,2.28,2.28,0,0,0,1.61.5h.11V32H238.8v-.46c1,0,1.72-.28,2-.83a4.45,4.45,0,0,0,.46-2.19V12.06a3.59,3.59,0,0,0-.61-2.34A2.29,2.29,0,0,0,238.8,9Z"/><path class="cls-4" d="M265.24,32V27.55h-.05q-2.2,4.69-6.56,4.69a6.78,6.78,0,0,1-3.94-1.19,7.28,7.28,0,0,1-2.58-3,15.66,15.66,0,0,1-.87-6.09V12.06a4.1,4.1,0,0,0-.52-2.26,2.19,2.19,0,0,0-2-.77V8.56h9.46V9c-1,0-1.71.27-2,.82a4.5,4.5,0,0,0-.47,2.21V22.51a11.08,11.08,0,0,0,.48,3.64,5,5,0,0,0,1,1.67,4.18,4.18,0,0,0,1.45,1.07,4.37,4.37,0,0,0,3.54,0,4.9,4.9,0,0,0,1.55-1.12,5,5,0,0,0,1.05-1.65,13.48,13.48,0,0,0,.49-4.26V12.06a3.82,3.82,0,0,0-.57-2.37,2.39,2.39,0,0,0-1.92-.7V8.56h9.47V9c-1,0-1.71.27-2,.81a4.36,4.36,0,0,0-.47,2.22V28.51a4,4,0,0,0,.53,2.3,2.26,2.26,0,0,0,2,.75V32Z"/><path class="cls-4" d="M298.64,8.56V9a5.25,5.25,0,0,0-1.31.23,1.54,1.54,0,0,0-.85.76,3.13,3.13,0,0,0-.25,1.77l1.11,15.73a10.32,10.32,0,0,0,.4,2.44,2,2,0,0,0,.7,1.06,4.89,4.89,0,0,0,1.32.51V32h-9.25v-.46a2.51,2.51,0,0,0,1.83-.72,3.62,3.62,0,0,0,.53-2.7l-1-14.92h-.05L285.25,32h-.48L278,13.81h-.06L277,26.87a7.45,7.45,0,0,0,.24,2.95,2.29,2.29,0,0,0,1,1.34,3.85,3.85,0,0,0,1.42.37V32h-6.84v-.46a2.37,2.37,0,0,0,2-1.21,9.24,9.24,0,0,0,.9-3.71L277,11.79A4.85,4.85,0,0,0,273.57,9V8.56h7.28L286.67,24l5.4-15.41Z"/></g></g></svg>