<svg xmlns="http://www.w3.org/2000/svg" viewBox="0 0 350 59.17"><defs><style>.cls-1{fill:#42210b;}.cls-2{fill:#c69c6d;}.cls-3{fill:#754c24;}.cls-4{fill:#c4cec5;}</style></defs><title>logo</title><g id="レイヤー_2" data-name="レイヤー 2"><g id="pc"><path d="M10.83,44.8A2.31,2.31,0,0,1,9.6,43.43a2.11,2.11,0,0,1,.15-1.8A68.71,68.71,0,0,0,17,16.43a2.43,2.43,0,0,1,.87-1.67,2.47,2.47,0,0,1,1.78-.63l2.48.13a2.45,2.45,0,0,1,1.67.83,2.31,2.31,0,0,1,.63,1.73,72.17,72.17,0,0,1-7.82,27.94A2.47,2.47,0,0,1,15.13,46a2.64,2.64,0,0,1-2-.11Zm29.28-.26a235.12,235.12,0,0,0-7.68-26.93,2.32,2.32,0,0,1,.13-1.83A2.2,2.2,0,0,1,34,14.61L36.07,14a2.52,2.52,0,0,1,1.94.15,2.45,2.45,0,0,1,1.28,1.45,215.92,215.92,0,0,1,8.34,27.5,2.42,2.42,0,0,1-.33,1.87,2.15,2.15,0,0,1-1.54,1l-2.69.52a2.49,2.49,0,0,1-1.87-.39A2.4,2.4,0,0,1,40.11,44.54Z"/><path d="M54,25.64a2.43,2.43,0,0,1-1.73-.71,2.29,2.29,0,0,1-.74-1.72V21.47A2.51,2.51,0,0,1,54,19H67.35a.35.35,0,0,0,.39-.4V13.7a2.46,2.46,0,0,1,2.44-2.44h2.47a2.4,2.4,0,0,1,1.74.72,2.32,2.32,0,0,1,.74,1.72v4.9c0,.26.12.4.35.4H86.12a2.37,2.37,0,0,1,1.74.73,2.42,2.42,0,0,1,.74,1.74v1.74a2.32,2.32,0,0,1-.74,1.72,2.43,2.43,0,0,1-1.74.71H75.48c-.23,0-.35.13-.35.39v.57q0,8.68-3.76,13.68t-11.75,7A2.53,2.53,0,0,1,57.69,47a2.72,2.72,0,0,1-1.24-1.57l-.57-1.78a2.13,2.13,0,0,1,.18-1.78,2.3,2.3,0,0,1,1.43-1.09q5.61-1.47,7.93-4.71t2.32-9.49V26a.34.34,0,0,0-.39-.39Z"/><path d="M144.73,46.93l0-.26a2.41,2.41,0,0,1,2.3-2.52c1.63-.09,3.52-.18,5.7-.26a.34.34,0,0,0,.39-.39v-.79c0-.23-.13-.34-.39-.34h-5.17a2.22,2.22,0,0,1-1.63-.68,2.2,2.2,0,0,1-.68-1.62,2.14,2.14,0,0,1,.68-1.61,2.23,2.23,0,0,1,1.63-.65h5.17a.34.34,0,0,0,.39-.39v-.57c0-.23-.13-.35-.39-.35h-4.35A2.51,2.51,0,0,1,145.86,34V25.86a2.37,2.37,0,0,1,.73-1.74,2.42,2.42,0,0,1,1.74-.74h4.35a.34.34,0,0,0,.39-.39v-.56c0-.23-.13-.35-.39-.35h-5.43a2.21,2.21,0,0,1-1.63-.67,2.24,2.24,0,0,1-.68-1.63,2.14,2.14,0,0,1,.68-1.61,2.27,2.27,0,0,1,1.63-.65h5.43c.23,0,.34-.13.34-.39v-.7a.31.31,0,0,0-.34-.35l-1.44.11-1.65.11c-.49,0-1,.05-1.39.05a2.48,2.48,0,0,1-1.76-.63,2.29,2.29,0,0,1-.8-1.63,2.18,2.18,0,0,1,.56-1.7,2.22,2.22,0,0,1,1.61-.78q7.31-.39,15.9-1.39a2.3,2.3,0,0,1,1.8.5,2.39,2.39,0,0,1,.94,1.63,2.42,2.42,0,0,1-.5,1.82,2.25,2.25,0,0,1-1.63.92c-.32,0-1,.09-2,.19l-2.32.24c-.23,0-.35.13-.35.39v1.22a.34.34,0,0,0,.39.39h4.3a2,2,0,0,1,2,1.3c.12.18.25.22.39.13a2.48,2.48,0,0,1,1.4-.43h1.21c.26,0,.39-.12.39-.35.06-2.43.09-4.39.09-5.86a2.53,2.53,0,0,1,2.48-2.48h.86a2.53,2.53,0,0,1,2.48,2.48c0,.26,0,2.21-.13,5.86,0,.23.13.35.39.35h6.3a2.35,2.35,0,0,1,1.74.74,2.38,2.38,0,0,1,.74,1.73v1.65q0,6.69-.07,10.76c0,2.71-.17,5.12-.37,7.25a44.09,44.09,0,0,1-.61,4.65,5.08,5.08,0,0,1-1.13,2.39,3.12,3.12,0,0,1-1.6,1.09,13.56,13.56,0,0,1-2.35.15c-.72,0-1.92-.08-3.6-.22a2.53,2.53,0,0,1-1.74-.87,2.82,2.82,0,0,1-.74-1.82V44.93a2,2,0,0,1,.67-1.61,2.12,2.12,0,0,1,1.68-.56,12.94,12.94,0,0,0,1.56.13c.43,0,.76-.28,1-.85a20.38,20.38,0,0,0,.54-4.26c.14-2.27.22-5.69.22-10.27v-3a.35.35,0,0,0-.39-.4H175.7a.35.35,0,0,0-.39.4,83.49,83.49,0,0,1-1.8,13.62,36.47,36.47,0,0,1-3.63,9.49,2,2,0,0,1-1.46,1.06,2.21,2.21,0,0,1-1.8-.41l-.61-.44a.65.65,0,0,0-.61,0,2.81,2.81,0,0,1-.82.22q-9.74.87-17.2,1.22a2.58,2.58,0,0,1-1.83-.64A2.25,2.25,0,0,1,144.73,46.93Zm6.34-19.64v1a.34.34,0,0,0,.39.39H153c.23,0,.35-.13.35-.39v-1c0-.26-.12-.39-.35-.39h-1.52A.34.34,0,0,0,151.07,27.29ZM153,32.94c.23,0,.35-.13.35-.39v-1a.31.31,0,0,0-.35-.34h-1.52c-.26,0-.39.11-.39.34v1a.34.34,0,0,0,.39.39Zm6.39-5.65v1a.34.34,0,0,0,.39.39h1.47a.35.35,0,0,0,.4-.39v-1a.35.35,0,0,0-.4-.39h-1.47A.34.34,0,0,0,159.37,27.29Zm0,4.3v1a.34.34,0,0,0,.39.39h1.47a.35.35,0,0,0,.4-.39v-1c0-.23-.14-.34-.4-.34h-1.47C159.5,31.25,159.37,31.36,159.37,31.59Zm.3-9.16V23a.34.34,0,0,0,.39.39H164a2.32,2.32,0,0,1,1.72.74,2.4,2.4,0,0,1,.72,1.74V34a2.4,2.4,0,0,1-.72,1.73,2.29,2.29,0,0,1-1.72.74h-3.95c-.26,0-.39.12-.39.35v.57a.34.34,0,0,0,.39.39h3.69A2.22,2.22,0,0,1,166,40.07a2.21,2.21,0,0,1-.65,1.62,2.14,2.14,0,0,1-1.61.68h-3.69c-.26,0-.39.11-.39.34v.44c0,.23.13.35.39.35l4.17-.26a3.27,3.27,0,0,1,.83.08c.26.06.43,0,.52-.17q3.21-6.39,3.95-18.55c0-.29-.11-.44-.35-.44h-1a2.36,2.36,0,0,1-1.66-.63,2.33,2.33,0,0,1-.78-1.58.21.21,0,0,0-.11-.2.14.14,0,0,0-.19,0,2.16,2.16,0,0,1-1.09.3h-4.3C159.8,22.08,159.67,22.2,159.67,22.43Z"/><path d="M189.69,28.9a2.52,2.52,0,0,1-1.56-1.15,2.68,2.68,0,0,1-.4-1.93q.79-5.22,1.18-11.65a2.45,2.45,0,0,1,2.56-2.26,2.52,2.52,0,0,1,1.7.87,2.45,2.45,0,0,1,.65,1.78c0,.18,0,.45,0,.81a7.86,7.86,0,0,1-.07.8c0,.26.12.39.35.39h.17a.31.31,0,0,0,.35-.35V12.48a2.35,2.35,0,0,1,.74-1.74,2.38,2.38,0,0,1,1.73-.74h1.61a2.53,2.53,0,0,1,2.48,2.48v3.73c0,.24.13.35.39.35h.3A2.53,2.53,0,0,1,204.33,19v.74a2.3,2.3,0,0,1-.74,1.71,2.4,2.4,0,0,1-1.74.72h-.3a.34.34,0,0,0-.39.39v7.52c0,.23.13.32.39.26a1,1,0,0,0,.35-.09.91.91,0,0,1,.3-.09,1.84,1.84,0,0,1,1.67.29,2,2,0,0,1,.85,1.49l0,.74v.39a.14.14,0,0,0,.07.13.14.14,0,0,0,.15,0,37.61,37.61,0,0,0,8-12.85c.05-.21,0-.31-.22-.31h-.87a.5.5,0,0,0-.52.35,42.07,42.07,0,0,1-4.13,7.12,1.86,1.86,0,0,1-1.52.81,2,2,0,0,1-1.61-.72l-.87-1a3,3,0,0,1-.76-1.86,3,3,0,0,1,.55-2,39.91,39.91,0,0,0,5.12-11.29A3,3,0,0,1,209.3,10a2.56,2.56,0,0,1,1.89-.48l1.48.17a2.13,2.13,0,0,1,1.54.92,1.91,1.91,0,0,1,.24,1.74c-.06.17-.14.44-.26.8s-.2.63-.26.8,0,.35.26.35h11.56a2.46,2.46,0,0,1,2.43,2.43q-.13,8.22-.26,13.4c-.09,3.47-.24,6.49-.46,9.08s-.43,4.52-.65,5.78a8.07,8.07,0,0,1-1.06,3,3,3,0,0,1-1.44,1.33,8.05,8.05,0,0,1-2,.19c-.84,0-2.68-.06-5.52-.17a2.76,2.76,0,0,1-1.82-.78,2.55,2.55,0,0,1-.83-1.78L214,44.89a.13.13,0,0,0-.1-.13c-.08,0-.13,0-.16,0a40.59,40.59,0,0,1-3.86,3.65A2.46,2.46,0,0,1,208,49a2.87,2.87,0,0,1-1.81-.89l-1-1a1.91,1.91,0,0,1-.59-1.65,2.25,2.25,0,0,1,.85-1.56,41.64,41.64,0,0,0,9.25-10.19,50.43,50.43,0,0,0,6.08-13.23c.06-.26,0-.39-.26-.39h-.69a.52.52,0,0,0-.53.35,52.63,52.63,0,0,1-4.86,10.34A39.56,39.56,0,0,1,208,38.85a2.3,2.3,0,0,1-1.78.63,2.64,2.64,0,0,1-1.78-.81l-.87-.86a2.12,2.12,0,0,1-.61-1.74c0-.2-.08-.28-.26-.22h0a.12.12,0,0,1-.09,0l-.54.16-.54.15a.44.44,0,0,0-.35.48V47.23a2.53,2.53,0,0,1-2.48,2.48h-1.61a2.38,2.38,0,0,1-1.73-.74,2.35,2.35,0,0,1-.74-1.74V38.28c0-.26-.12-.36-.35-.3-1,.23-2.19.46-3.52.69a2.18,2.18,0,0,1-1.78-.43,2.14,2.14,0,0,1-.91-1.61l-.09-.74a2.54,2.54,0,0,1,.54-1.82,2.71,2.71,0,0,1,1.63-1c1.86-.35,3.23-.63,4.13-.83a.44.44,0,0,0,.35-.48V22.6c0-.26-.12-.39-.35-.39h-.65q-.3,0-.39.39c-.12,1.16-.32,2.68-.61,4.56a2.14,2.14,0,0,1-1,1.52,2.11,2.11,0,0,1-1.78.26Zm31.37,5.69a.18.18,0,0,0-.18-.09,47.08,47.08,0,0,1-5.73,8.69c-.12.18-.06.26.17.26q3,.18,3.78.18a1,1,0,0,0,.85-.52,8.45,8.45,0,0,0,.61-2.55Q220.83,38.55,221.06,34.59Z"/><path d="M233.91,30.55a2.53,2.53,0,0,1-2.47-2.48V26.73a2.35,2.35,0,0,1,.74-1.74,2.38,2.38,0,0,1,1.73-.74h29.68a2.4,2.4,0,0,1,1.76.72,2.27,2.27,0,0,1,.67,1.76q-.39,9.6-6.52,14.79T241,47.71a2.57,2.57,0,0,1-1.87-.56,2.82,2.82,0,0,1-1-1.7L237.82,44a2.11,2.11,0,0,1,.44-1.74,2.19,2.19,0,0,1,1.61-.87q7.81-.64,12.31-3.19a12.18,12.18,0,0,0,5.93-7.36c.06-.21,0-.31-.26-.31ZM237,12.83h24.07a2.29,2.29,0,0,1,1.71.73,2.44,2.44,0,0,1,.72,1.74v1.39a2.46,2.46,0,0,1-2.43,2.44H237a2.34,2.34,0,0,1-1.72-.72,2.37,2.37,0,0,1-.71-1.72V15.3a2.47,2.47,0,0,1,.71-1.74A2.31,2.31,0,0,1,237,12.83Z"/><path d="M271.49,19.82a2.23,2.23,0,0,1-1.21-1.39,2.19,2.19,0,0,1,.17-1.82l1-2a2.46,2.46,0,0,1,1.46-1.24,2.59,2.59,0,0,1,1.93.11q4.47,2.13,9.17,4.56a2.19,2.19,0,0,1,1.19,1.44,2.35,2.35,0,0,1-.2,1.86l-1.12,2a2.41,2.41,0,0,1-1.46,1.17,2.36,2.36,0,0,1-1.89-.17Q276,22,271.49,19.82Zm30.85-2.13a2.43,2.43,0,0,1,1.56,1.07,2.31,2.31,0,0,1,.35,1.84Q301.69,32,294.19,38.37t-20.44,8a2.46,2.46,0,0,1-1.87-.5,2.53,2.53,0,0,1-1-1.67l-.31-2a2.17,2.17,0,0,1,.44-1.76,2.29,2.29,0,0,1,1.6-.93q10.61-1.49,16.53-6.3t8.37-14a2.54,2.54,0,0,1,1.1-1.55,2.36,2.36,0,0,1,1.85-.32Z"/><path d="M312.89,48.41a2.53,2.53,0,0,1-2.47-2.48V14.65a2.53,2.53,0,0,1,2.47-2.48h2.48a2.32,2.32,0,0,1,1.72.74,2.45,2.45,0,0,1,.71,1.74v9.12a.45.45,0,0,0,.39.48q10.21,2.52,20.64,6.17a2.49,2.49,0,0,1,1.56,3.17l-.69,2a2.43,2.43,0,0,1-1.22,1.39,2.35,2.35,0,0,1-1.82.13q-8.91-3.18-18.51-5.65c-.23-.06-.35,0-.35.3V45.93a2.45,2.45,0,0,1-.71,1.74,2.32,2.32,0,0,1-1.72.74ZM327,14a2.44,2.44,0,0,1,1.91-.17,2.38,2.38,0,0,1,1.48,1.22q.83,1.43,1.74,3.3A2.38,2.38,0,0,1,331,21.65l-.43.21a2.31,2.31,0,0,1-1.89.15,2.45,2.45,0,0,1-1.46-1.23q-.25-.57-.87-1.65c-.4-.73-.69-1.26-.87-1.61a2.34,2.34,0,0,1-.19-1.85,2.16,2.16,0,0,1,1.19-1.41Zm11-.69c.81,1.5,1.42,2.65,1.83,3.43A2.38,2.38,0,0,1,338.7,20l-.57.3a2.4,2.4,0,0,1-1.88.11,2.46,2.46,0,0,1-1.46-1.24L333,15.82a2.23,2.23,0,0,1-.18-1.82A2.34,2.34,0,0,1,334,12.57l.56-.26a2.45,2.45,0,0,1,1.91-.18A2.38,2.38,0,0,1,338,13.35Z"/><path class="cls-1" d="M42.62,56A12,12,0,0,1,36,54a11.86,11.86,0,0,1-5.16-7.44c-.53-2.37-1.1-4.72-1.69-7A78.14,78.14,0,0,1,25,49.11,12,12,0,0,1,18.08,55a12.19,12.19,0,0,1-8.81-.49l-2.5-1.16A11.78,11.78,0,0,1,.66,46.55a11.57,11.57,0,0,1,.71-9.32,59.71,59.71,0,0,0,6.22-21.7A11.84,11.84,0,0,1,11.7,7.59a12,12,0,0,1,8.35-2.91L23,4.84A11.9,11.9,0,0,1,28.5,6.76a12.06,12.06,0,0,1,2.58-1.17l2.23-.68a12.06,12.06,0,0,1,8.85.7,11.91,11.91,0,0,1,6,6.68,226.06,226.06,0,0,1,8.68,28.62l0,.15A11.87,11.87,0,0,1,55.32,50a11.58,11.58,0,0,1-7.81,5.32l-2.83.55A12.91,12.91,0,0,1,42.62,56Z"/><path class="cls-1" d="M59,56.82a12,12,0,0,1-6-1.64,12.13,12.13,0,0,1-5.43-6.74l-.61-1.91a11.5,11.5,0,0,1,1-9.38A11.93,11.93,0,0,1,50,34.43a12,12,0,0,1-8-11.22V21.47A12,12,0,0,1,54,9.54H59A11.94,11.94,0,0,1,70.18,1.8h2.47A12,12,0,0,1,83.84,9.54h2.28A12,12,0,0,1,98.06,21.47v1.74a11.75,11.75,0,0,1-3.61,8.5,11.9,11.9,0,0,1-8.33,3.39H83.74A27.54,27.54,0,0,1,78.93,46c-3.83,5.09-9.55,8.62-17,10.48A12.08,12.08,0,0,1,59,56.82Z"/><path class="cls-1" d="M147.3,58.73a12,12,0,0,1-7.92-2.92,11.73,11.73,0,0,1-4-7.71l-.07-.45,0-.56a12,12,0,0,1,.74-4.7,12,12,0,0,1-.23-2.33,11.65,11.65,0,0,1,.79-4.24A11.88,11.88,0,0,1,136.4,34V25.86a11.9,11.9,0,0,1,.07-1.34,11.82,11.82,0,0,1-.19-9c0-.25-.06-.51-.08-.78A11.78,11.78,0,0,1,147.37,2.16c4.57-.24,9.71-.69,15.21-1.33a11.93,11.93,0,0,1,5.12.49,11.87,11.87,0,0,1,4.66-.95h.86a12,12,0,0,1,11.56,9A12,12,0,0,1,194.2,21v1.65c0,4.46,0,8.13-.07,10.91s-.19,5.62-.41,8a53.64,53.64,0,0,1-.77,5.68A14.45,14.45,0,0,1,189.66,54a12.31,12.31,0,0,1-6.9,4.11,21.82,21.82,0,0,1-4.15.33c-1,0-2.41-.08-4.42-.26a11.44,11.44,0,0,1-2.53-.49,12.73,12.73,0,0,1-1.38.37,11.51,11.51,0,0,1-6.14-.42c-6.07.53-11.56.91-16.32,1.13Zm1.11-37.68Z"/><path class="cls-1" d="M198.68,59.17h-1.61a12,12,0,0,1-11.93-11.94V47a11.72,11.72,0,0,1-1.81-1.11,11.53,11.53,0,0,1-4.7-8.21l-.1-.92a12.06,12.06,0,0,1,.78-5.43,12.17,12.17,0,0,1-.92-6.93c.47-3.17.83-6.79,1.08-10.76v-.24a11.94,11.94,0,0,1,4-7.94,11.81,11.81,0,0,1,7.1-2.94A11.82,11.82,0,0,1,197.07.54h1.61a11.89,11.89,0,0,1,5.6,1.4A12.12,12.12,0,0,1,212.37.09l1.52.19a11.52,11.52,0,0,1,7.82,4.52h4a11.9,11.9,0,0,1,11.89,11.89v.15q-.13,8.27-.26,13.49c-.1,3.63-.26,6.87-.49,9.63s-.49,5-.76,6.6a17.29,17.29,0,0,1-2.46,6.59,12,12,0,0,1-6.79,5.25,16.6,16.6,0,0,1-4.61.55c-.66,0-1.94,0-5.9-.18a12.17,12.17,0,0,1-4.21-.92,11.94,11.94,0,0,1-5.16.6,12.11,12.11,0,0,1-2.83-.63A11.79,11.79,0,0,1,198.68,59.17Zm-9.54-29.82-.11,0Zm-4.75-14.69v0Z"/><path class="cls-1" d="M240.76,57.18a12.05,12.05,0,0,1-7.49-2.61,12.22,12.22,0,0,1-4.45-7.19l-.3-1.67a11.42,11.42,0,0,1,.74-6.65,12.1,12.1,0,0,1-3.78-2.56,11.88,11.88,0,0,1-3.5-8.43V26.73a11.83,11.83,0,0,1,3.27-8.18,12.73,12.73,0,0,1-.14-1.86V15.3A11.93,11.93,0,0,1,237,3.37h24.07a11.78,11.78,0,0,1,8.5,3.6A11.92,11.92,0,0,1,273,15.3v1.39a12.24,12.24,0,0,1-.23,2.35,11.66,11.66,0,0,1,2.74,8.07c-.46,11.37-5.61,18-9.85,21.63-5.68,4.81-13.49,7.56-23.86,8.4C241.42,57.17,241.09,57.18,240.76,57.18Z"/><path class="cls-1" d="M273.41,55.8a12,12,0,0,1-11.86-10.1l-.31-2a11.56,11.56,0,0,1,2.24-9A11.73,11.73,0,0,1,271,30.13c-1.21-.6-2.42-1.2-3.63-1.78a11.78,11.78,0,0,1-5.34-16.13l1-2a11.94,11.94,0,0,1,6.85-5.82,12.07,12.07,0,0,1,8.82.46l.16.08c3,1.45,6.19,3,9.37,4.66a12,12,0,0,1,2.86,2A11.91,11.91,0,0,1,302.48,8l2,.46a11.9,11.9,0,0,1,7.33,5,11.76,11.76,0,0,1,1.72,9.1c-2.17,9.7-6.61,17.41-13.19,23-6.39,5.42-14.94,8.82-25.38,10.12A12.87,12.87,0,0,1,273.41,55.8Zm.64-7-.12,0Zm-1.46-11.88h0Zm3.71-19.2a6.93,6.93,0,0,0-.2,4.36l.06.2a7,7,0,0,0,3.11-2.35,7.77,7.77,0,0,0,.25-1.06l-2.9-1.52C276.51,17.48,276.4,17.6,276.3,17.73Zm30.37,3.78v0Zm-30-4.19,2.87,1.46c0-.12,0-.25.05-.38L277,17C276.89,17.09,276.77,17.2,276.66,17.32Zm.5-.47,2.43,1.41a7.07,7.07,0,0,0-.29-2.67A6.72,6.72,0,0,0,277.16,16.85Zm7.67-.93.06,0Z"/><path class="cls-1" d="M315.37,57.87h-2.48A12,12,0,0,1,301,45.93V14.65A12,12,0,0,1,312.89,2.72h2.48A11.76,11.76,0,0,1,323,5.47a12,12,0,0,1,6.35-1.12l.3-.16.86-.41a12,12,0,0,1,15.84,5.11c.83,1.55,1.45,2.73,1.87,3.53a11.68,11.68,0,0,1,.71,9.28A12,12,0,0,1,347.14,25a12.38,12.38,0,0,1,1.54,2.33,11.81,11.81,0,0,1,.65,9.35l-.72,2a12,12,0,0,1-5.9,6.69,11.8,11.8,0,0,1-8.92.68l-.31-.1c-2-.73-4.11-1.43-6.22-2.1v2a11.95,11.95,0,0,1-11.89,11.94Zm17.05-39.5,1.76.54a6.45,6.45,0,0,0,.21-.62,7.18,7.18,0,0,0,.2-.92Zm-1.81-.54,1.44.43,2.59-1.35a7.25,7.25,0,0,0-.15-2.08,7.26,7.26,0,0,0-1.44-1.16l-1.58.83a7.07,7.07,0,0,0-.48,1.09,7.23,7.23,0,0,0-.33,1.48L333,15.82l-2.31,1.28C330.63,17.34,330.62,17.58,330.61,17.83Zm9.95-3.67a12.25,12.25,0,0,1,1.08,3.17c.06-.15.12-.31.17-.47a7.17,7.17,0,0,0,.15-3.68A6.67,6.67,0,0,0,340.47,12l-.78.41C340,13,340.27,13.56,340.56,14.16Zm-8.25-.87a6.74,6.74,0,0,0-.79,1.13l1.41-.81A5.2,5.2,0,0,0,332.31,13.29Zm6.85-1.84c.18.32.35.64.52,1l.76-.41a7.27,7.27,0,0,0-1.21-.53Z"/><path class="cls-2" d="M42.61,48.42a4.44,4.44,0,0,1-2.44-.73A4.32,4.32,0,0,1,38.27,45a234.46,234.46,0,0,0-7.63-26.71,4.3,4.3,0,0,1,.22-3.31,4.19,4.19,0,0,1,2.51-2.13l2.15-.65a4.49,4.49,0,0,1,3.32.26,4.37,4.37,0,0,1,2.24,2.53,219.69,219.69,0,0,1,8.39,27.69,4.32,4.32,0,0,1-.56,3.3,4.07,4.07,0,0,1-2.82,1.91l-2.66.51A4.62,4.62,0,0,1,42.61,48.42ZM36.86,15.73a.75.75,0,0,0-.24,0l-2.12.65a.32.32,0,0,0-.25.21.45.45,0,0,0,0,.4A240.28,240.28,0,0,1,42,44.12v0a.55.55,0,0,0,.27.38.69.69,0,0,0,.52.11l2.65-.51a.35.35,0,0,0,.3-.19.56.56,0,0,0,.08-.47,213.16,213.16,0,0,0-8.26-27.23.6.6,0,0,0-.34-.42A.66.66,0,0,0,36.86,15.73ZM14.29,48a4.52,4.52,0,0,1-1.89-.42L10,46.51a4.23,4.23,0,0,1-2.21-2.45,4,4,0,0,1,.28-3.34,67.26,67.26,0,0,0,7-24.47,4.27,4.27,0,0,1,1.52-2.92,4.37,4.37,0,0,1,3.09-1.09l2.5.13a4.41,4.41,0,0,1,3,1.44,4.25,4.25,0,0,1,1.12,3.09,74.33,74.33,0,0,1-8,28.73,4.37,4.37,0,0,1-2.57,2.16A4.42,4.42,0,0,1,14.29,48Zm-2.65-4.94L14,44.17a.73.73,0,0,0,.58,0,.62.62,0,0,0,.39-.32,70.61,70.61,0,0,0,7.61-27.2.47.47,0,0,0-.15-.32.61.61,0,0,0-.44-.22L19.55,16a.56.56,0,0,0-.44.17.53.53,0,0,0-.22.41,71,71,0,0,1-7.46,25.89c-.08.16-.09.2,0,.32A.44.44,0,0,0,11.64,43.09Z"/><path class="cls-2" d="M58.94,49.25a4.37,4.37,0,0,1-2.21-.6,4.74,4.74,0,0,1-2.08-2.6l-.57-1.81a4,4,0,0,1,.34-3.3A4.17,4.17,0,0,1,57,39c3.29-.87,5.6-2.21,6.88-4s1.86-4.17,2-7.46H54a4.3,4.3,0,0,1-3-1.25,4.17,4.17,0,0,1-1.31-3.07V21.47A4.42,4.42,0,0,1,54,17.1H65.85V13.7a4.35,4.35,0,0,1,4.33-4.33h2.47a4.32,4.32,0,0,1,3.06,1.25A4.21,4.21,0,0,1,77,13.7v3.4h9.1a4.42,4.42,0,0,1,4.37,4.37v1.74a4.17,4.17,0,0,1-1.31,3.07,4.32,4.32,0,0,1-3.06,1.25H77c-.13,5.76-1.52,10.43-4.13,13.89-2.76,3.67-7.06,6.26-12.8,7.69A4.45,4.45,0,0,1,58.94,49.25ZM54,20.89a.62.62,0,0,0-.58.58v1.74a.43.43,0,0,0,.16.36.54.54,0,0,0,.42.18H67.35A2.23,2.23,0,0,1,69.64,26v.57c0,4.55-.91,8.12-2.68,10.59s-4.83,4.35-9,5.44a.43.43,0,0,0-.28.21c0,.06,0,.1,0,.26l.56,1.78a.81.81,0,0,0,.39.5.63.63,0,0,0,.52.06c4.88-1.22,8.47-3.34,10.7-6.3s3.38-7.2,3.38-12.54V26a2.21,2.21,0,0,1,2.24-2.28H86.12a.54.54,0,0,0,.42-.18.45.45,0,0,0,.17-.36V21.47a.64.64,0,0,0-.59-.58H75.48a2.21,2.21,0,0,1-2.24-2.29V13.7a.42.42,0,0,0-.17-.36.51.51,0,0,0-.42-.19H70.18a.47.47,0,0,0-.38.17.46.46,0,0,0-.16.38v4.9a2.23,2.23,0,0,1-2.29,2.29Z"/><path class="cls-2" d="M147.26,51.17a4.46,4.46,0,0,1-2.94-1.09,4.17,4.17,0,0,1-1.48-2.94l-.05-.39a4.25,4.25,0,0,1,1.12-3.09,5.26,5.26,0,0,1,.66-.6l0,0a4.13,4.13,0,0,1-1.23-3,4,4,0,0,1,1.25-3l.39-.34A4.21,4.21,0,0,1,144,34V25.86a4.23,4.23,0,0,1,.9-2.63,3.77,3.77,0,0,1-.58-.49,4.1,4.1,0,0,1-1.23-3,4,4,0,0,1,1.25-3c.1-.1.21-.19.32-.28a4.09,4.09,0,0,1-.87-2.36,4,4,0,0,1,1-3,4.08,4.08,0,0,1,2.94-1.42c4.8-.26,10.11-.72,15.77-1.38a4.22,4.22,0,0,1,3.19.89,4.37,4.37,0,0,1,1.44,2,4.34,4.34,0,0,1,1.16-2,4.27,4.27,0,0,1,3.08-1.29h.86a4.4,4.4,0,0,1,4.37,4.36c0,.16,0,.81-.09,4.33h4.76A4.42,4.42,0,0,1,186.63,21v1.65c0,4.42,0,8.05-.07,10.79s-.17,5.22-.37,7.4-.42,3.81-.64,4.86A7,7,0,0,1,184,48.94a4.83,4.83,0,0,1-2.66,1.69,14.48,14.48,0,0,1-2.71.19c-.78,0-2-.07-3.77-.23a4.41,4.41,0,0,1-3-1.49c-.13-.15-.24-.3-.35-.45a3.93,3.93,0,0,1-2.7,1.94,4.11,4.11,0,0,1-3.3-.75l0,0a4.72,4.72,0,0,1-.59.12h-.12c-6.48.58-12.29,1-17.29,1.23Zm-.69-4.67.05.35a.4.4,0,0,0,.17.36.6.6,0,0,0,.51.17c4.91-.22,10.65-.63,17-1.2a1.37,1.37,0,0,0,.27-.06l.12,0a2.55,2.55,0,0,1,2.33.24l.65.47c.16.12.22.12.33.1s.12,0,.17-.13a34.42,34.42,0,0,0,3.45-9,81.59,81.59,0,0,0,1.75-13.26,2.24,2.24,0,0,1,2.28-2.21h2.09a2.23,2.23,0,0,1,2.28,2.29v3c0,4.59-.08,8.09-.22,10.39a17.54,17.54,0,0,1-.67,4.82,2.88,2.88,0,0,1-2.74,2.06,17,17,0,0,1-1.8-.14s-.07,0-.17.08v.05l-.06.16V46a.92.92,0,0,0,.26.56.61.61,0,0,0,.48.24c1.63.15,2.79.22,3.45.22a11.72,11.72,0,0,0,2-.12h0a2.13,2.13,0,0,0,.55-.48,3.24,3.24,0,0,0,.69-1.53c.19-.89.38-2.39.58-4.44s.32-4.47.36-7.1.07-6.33.07-10.73V21a.5.5,0,0,0-.19-.4.49.49,0,0,0-.4-.18H176a2.21,2.21,0,0,1-2.28-2.24c.11-4.55.13-5.7.13-5.87a.49.49,0,0,0-.19-.4.49.49,0,0,0-.4-.18h-.86a.51.51,0,0,0-.41.19.5.5,0,0,0-.18.39c0,1.48,0,3.47-.09,5.91a2.2,2.2,0,0,1-2.28,2.2h-1.21a.55.55,0,0,0-.35.12,2,2,0,0,1-.55.24,2.12,2.12,0,0,1,.35,1,.45.45,0,0,0,.16.32.51.51,0,0,0,.39.14h1a2.23,2.23,0,0,1,2.24,2.33v.11c-.51,8.45-1.87,14.76-4.15,19.29a2.29,2.29,0,0,1-2.63,1.17l-.18-.05s-.06,0-.16,0l-4.12.26h-.12a2.21,2.21,0,0,1-2.28-2.24v-.44a2.21,2.21,0,0,1,2.28-2.23h3.69a.27.27,0,0,0,.25-.1.39.39,0,0,0,.12-.32.29.29,0,0,0-.1-.26c-.06-.07-.1-.1-.27-.1h-3.69a2.23,2.23,0,0,1-2.28-2.28v-.57a2.18,2.18,0,0,1,1.41-2.08,2.23,2.23,0,0,1-1.72-2.22v-1a2.17,2.17,0,0,1,.72-1.65,2.26,2.26,0,0,1-.72-1.69v-1a2.22,2.22,0,0,1,1.66-2.2,2.22,2.22,0,0,1-1.35-2.1v-.56a2.21,2.21,0,0,1,2.28-2.24h4.3a.12.12,0,0,0,.07,0,2.33,2.33,0,0,1,.45-.22.56.56,0,0,0,0-.08l-.16-.3a.46.46,0,0,0-.08-.13h0a.72.72,0,0,0-.23,0h-4.3a2.23,2.23,0,0,1-2.28-2.28V15.91a2.21,2.21,0,0,1,2.11-2.28l2.26-.23,2-.2a.33.33,0,0,0,.29-.17.5.5,0,0,0,.13-.44.51.51,0,0,0-.22-.38.44.44,0,0,0-.39-.11c-5.77.67-11.16,1.14-16.05,1.4a.33.33,0,0,0-.29.14c-.11.13-.11.18-.1.27a.44.44,0,0,0,.18.39.56.56,0,0,0,.42.16c.48,0,.91,0,1.36-.05s1-.06,1.63-.1l1.41-.11h.16a2.2,2.2,0,0,1,2.24,2.24v.7a2.21,2.21,0,0,1-2.24,2.28h-5.43a.39.39,0,0,0-.32.12.28.28,0,0,0-.09.25.36.36,0,0,0,.11.29.37.37,0,0,0,.3.12h5.43A2.21,2.21,0,0,1,155,22.43V23a2.22,2.22,0,0,1-1.36,2.1,2.21,2.21,0,0,1,1.62,2.2v1a2.32,2.32,0,0,1-.7,1.69,2.23,2.23,0,0,1,.7,1.65v1a2.23,2.23,0,0,1-1.68,2.22A2.18,2.18,0,0,1,155,36.85v.57a2.23,2.23,0,0,1-2.28,2.28h-5.17a.36.36,0,0,0-.32.12.26.26,0,0,0-.09.24.36.36,0,0,0,.11.3.37.37,0,0,0,.3.12h5.17A2.21,2.21,0,0,1,155,42.71v.79a2.23,2.23,0,0,1-2.28,2.28c-2.09.08-4,.17-5.59.26a.46.46,0,0,0-.38.17A.47.47,0,0,0,146.57,46.5Zm6-4.5h0Zm22.15-1.14h.3l.69.08a30.52,30.52,0,0,0,.33-3.29q.09-1.44.15-3.54c-.26,1.63-.55,3.13-.87,4.49C175.16,39.38,175,40.13,174.75,40.86Zm-12.5-6.25H164a.41.41,0,0,0,.36-.16.52.52,0,0,0,.19-.42V25.86a.52.52,0,0,0-.19-.42.41.41,0,0,0-.36-.16h-1.67a2.23,2.23,0,0,1,1.18,2v1a2.26,2.26,0,0,1-.72,1.69,2.17,2.17,0,0,1,.72,1.65v1A2.24,2.24,0,0,1,162.25,34.61Zm-13.92-9.33a.62.62,0,0,0-.58.58V34a.62.62,0,0,0,.58.58h2.12a2.22,2.22,0,0,1-1.27-2.06v-1a2.2,2.2,0,0,1,.71-1.65,2.29,2.29,0,0,1-.71-1.69v-1a2.21,2.21,0,0,1,1.18-2Zm11.49,6.8a1.7,1.7,0,0,0,.68.84,1.73,1.73,0,0,0,.67-.84,1.64,1.64,0,0,0-.67-.82A1.61,1.61,0,0,0,159.82,32.08Zm-8.3,0a1.7,1.7,0,0,0,.69.83,1.72,1.72,0,0,0,.67-.83,1.71,1.71,0,0,0-.67-.81A1.7,1.7,0,0,0,151.52,32.08Zm8.3-4.31a1.68,1.68,0,0,0,.68.81,1.66,1.66,0,0,0,.67-.81,1.66,1.66,0,0,0-.67-.81A1.68,1.68,0,0,0,159.82,27.77Zm-8.29,0a1.56,1.56,0,0,0,.68.8,1.57,1.57,0,0,0,.66-.8,1.57,1.57,0,0,0-.66-.8A1.56,1.56,0,0,0,151.53,27.77Zm15-11.56a3.41,3.41,0,0,1,.68.52,5.36,5.36,0,0,1,.7-.1c0-.78,0-1.51,0-2.17a4.61,4.61,0,0,1-1.42,1.75Z"/><path class="cls-2" d="M198.68,51.6h-1.61a4.4,4.4,0,0,1-4.36-4.37v-7l-1.65.3a4.11,4.11,0,0,1-3.23-.78,4,4,0,0,1-1.68-3l-.08-.68a4.54,4.54,0,0,1,.92-3.2,4.64,4.64,0,0,1,2.73-1.74l3-.58v-.38l-.1.06a4.05,4.05,0,0,1-3.29.49l-.18-.06a4.45,4.45,0,0,1-2.61-1.95,4.61,4.61,0,0,1-.66-3.26c.5-3.37.89-7.23,1.15-11.44a4.34,4.34,0,0,1,4.53-4,4.85,4.85,0,0,1,1.65.45A4.74,4.74,0,0,1,194,9.4a4.3,4.3,0,0,1,3.07-1.29h1.61a4.4,4.4,0,0,1,4.37,4.37v2.36a4.21,4.21,0,0,1,1.64.9,41.16,41.16,0,0,0,1.64-4.69,5,5,0,0,1,1.87-2.63,4.53,4.53,0,0,1,3.23-.82l1.46.18a4,4,0,0,1,2.88,1.71,3.77,3.77,0,0,1,.61,2.88h9.37a4.34,4.34,0,0,1,4.32,4.32q-.13,8.26-.26,13.45c-.09,3.49-.24,6.58-.46,9.19s-.44,4.61-.67,5.94A10,10,0,0,1,227.33,49a4.61,4.61,0,0,1-2.5,2.11,9.77,9.77,0,0,1-2.56.26c-.86,0-2.69-.05-5.59-.17a4.69,4.69,0,0,1-3.05-1.3,4.43,4.43,0,0,1-1-1.37c-.54.5-1.08,1-1.59,1.38a4.34,4.34,0,0,1-3.27,1,4.71,4.71,0,0,1-3-1.48l-1-1a3.79,3.79,0,0,1-.74-1,4.41,4.41,0,0,1-4.37,4.21Zm-4.32-15.53a2.11,2.11,0,0,1,2.13,2.21v8.95a.66.66,0,0,0,.58.59h1.61a.49.49,0,0,0,.4-.19.5.5,0,0,0,.19-.4V36.68A2.32,2.32,0,0,1,201,34.36c.12,0,.27-.07.48-.13l.14,0,.23-.23h.65a2.18,2.18,0,0,1,.51,0,2,2,0,0,1-.18-.84l0-1v0l-.08-.06-.19.06.08,0a3.38,3.38,0,0,1-.84.22,2.13,2.13,0,0,1-2.52-2.14V22.6a2.23,2.23,0,0,1,2.28-2.28h.3a.53.53,0,0,0,.42-.18.45.45,0,0,0,.17-.36V19a.66.66,0,0,0-.59-.59h-.3a2.21,2.21,0,0,1-2.28-2.24V12.48a.66.66,0,0,0-.59-.59h-1.61a.53.53,0,0,0-.4.19.49.49,0,0,0-.18.4v3.73a2.19,2.19,0,0,1-2.24,2.24h-.17a2.21,2.21,0,0,1-2.24-2.28l0-.3a5.79,5.79,0,0,0,0-.58c0-.33,0-.57,0-.73a.59.59,0,0,0-.17-.52.6.6,0,0,0-.44-.24.45.45,0,0,0-.33.14.53.53,0,0,0-.19.4c-.26,4.27-.66,8.24-1.18,11.76a.8.8,0,0,0,.11.63.64.64,0,0,0,.45.34l.19.06a.26.26,0,0,0,.23-.05c.07,0,.12-.07.15-.24.27-1.81.47-3.31.59-4.43l0-.22a2.29,2.29,0,0,1,2.24-1.87h.65a2.21,2.21,0,0,1,2.24,2.28v9.12A2.32,2.32,0,0,1,194.71,34c-1,.22-2.34.49-4.24.85a.79.79,0,0,0-.47.33.62.62,0,0,0-.16.51l.08.68a.33.33,0,0,0,.15.31c.17.12.24.11.32.09,1.32-.22,2.47-.45,3.44-.67A1.88,1.88,0,0,1,194.36,36.07Zm21.54,9.31.09,1.24a.65.65,0,0,0,.24.54.85.85,0,0,0,.6.27c2.82.11,4.65.17,5.44.17a7.45,7.45,0,0,0,1.44-.1,2.64,2.64,0,0,0,.45-.56,6.2,6.2,0,0,0,.79-2.31c.2-1.2.42-3.09.63-5.61s.36-5.56.45-9,.17-7.92.26-13.39a.44.44,0,0,0-.16-.34.47.47,0,0,0-.38-.17H214.19a2.17,2.17,0,0,1-1.73-.81,2.15,2.15,0,0,1-.36-1.89l0-.13.26-.79.27-.83c0-.11-.07-.15-.23-.17L211,11.36a.69.69,0,0,0-.56.14,1.09,1.09,0,0,0-.45.62,42,42,0,0,1-5.36,11.79,1.16,1.16,0,0,0-.23.79,1.14,1.14,0,0,0,.29.73l.85.94.1.09h.11a41.65,41.65,0,0,0,3.91-6.78,2.39,2.39,0,0,1,2.26-1.49h.87a2.07,2.07,0,0,1,2,2.71l0,.17a39.63,39.63,0,0,1-8.4,13.49l-.22.23-.29.14a2,2,0,0,1-1.15.22,2.14,2.14,0,0,1,.2.92v.16c0,.16,0,.19.06.24l.87.87a.79.79,0,0,0,.56.25.43.43,0,0,0,.37-.12,38,38,0,0,0,6.07-7.69,52,52,0,0,0,4.69-10,2.39,2.39,0,0,1,2.31-1.62h.69a2.14,2.14,0,0,1,2.11,2.69l0,.13a52.28,52.28,0,0,1-6.32,13.72,43.47,43.47,0,0,1-9.67,10.65.41.41,0,0,0-.13.28l1.07,1.18a.89.89,0,0,0,.63.31.54.54,0,0,0,.48-.15,38.09,38.09,0,0,0,3.63-3.41,2,2,0,0,1,1-.66,2.26,2.26,0,0,1,.33-.79l.13-.17a44.82,44.82,0,0,0,5.5-8.34l.54-1h1.14a2.06,2.06,0,0,1,1.86,1.12l.23.45,0,.52c-.15,2.71-.31,4.72-.51,6.13a8.21,8.21,0,0,1-.88,3.28,2.85,2.85,0,0,1-2.45,1.41C218.62,45.52,217.58,45.47,215.9,45.38Zm-12.85-5.44v4a4.27,4.27,0,0,1,1.16-1.49c.47-.37.93-.74,1.38-1.13A4.53,4.53,0,0,1,203.12,40Zm-8.34-.12h0Zm7.71-7.74-.22,0Z"/><path class="cls-2" d="M240.76,49.61a4.42,4.42,0,0,1-2.8-1,4.74,4.74,0,0,1-1.73-2.79L236,44.36a4,4,0,0,1,.81-3.24,4,4,0,0,1,2.93-1.59c4.93-.41,8.81-1.41,11.55-3a10.33,10.33,0,0,0,4.18-4.13H233.91a4.4,4.4,0,0,1-4.36-4.37V26.73a4.4,4.4,0,0,1,4.36-4.37h29.68a4.28,4.28,0,0,1,3.09,1.27,4.11,4.11,0,0,1,1.23,3.17c-.28,6.93-2.7,12.36-7.18,16.16s-11,5.94-19.58,6.64Zm-6.85-23.47a.47.47,0,0,0-.39.19.49.49,0,0,0-.19.4v1.34a.64.64,0,0,0,.58.59h23.94a2.09,2.09,0,0,1,2.08,2.71,14.08,14.08,0,0,1-6.82,8.5c-3.22,1.82-7.62,3-13.09,3.43a.33.33,0,0,0-.27.14.24.24,0,0,0-.06.24l.26,1.43a.88.88,0,0,0,.35.55.71.71,0,0,0,.54.17c7.82-.64,13.68-2.57,17.44-5.75s5.61-7.53,5.85-13.43a.37.37,0,0,0-.12-.34.51.51,0,0,0-.42-.17ZM261.07,21H237a4.35,4.35,0,0,1-4.33-4.33V15.3a4.31,4.31,0,0,1,1.26-3.05A4.18,4.18,0,0,1,237,10.93h24.07a4.2,4.2,0,0,1,3.07,1.32,4.3,4.3,0,0,1,1.25,3.05v1.39A4.34,4.34,0,0,1,261.07,21ZM237,14.72a.42.42,0,0,0-.36.16.55.55,0,0,0-.18.42v1.39a.45.45,0,0,0,.16.38.46.46,0,0,0,.38.16h24.07a.46.46,0,0,0,.38-.16.48.48,0,0,0,.16-.38V15.3a.53.53,0,0,0-.19-.42.41.41,0,0,0-.35-.16Z"/><path class="cls-2" d="M273.4,48.24a4.35,4.35,0,0,1-2.66-.91A4.45,4.45,0,0,1,269,44.46l-.31-2a4,4,0,0,1,.8-3.18,4.19,4.19,0,0,1,2.87-1.67c6.67-.93,11.92-2.91,15.58-5.89s6.22-7.33,7.73-13A4.44,4.44,0,0,1,297.6,16a4.28,4.28,0,0,1,3.27-.58l1.89.44a4.35,4.35,0,0,1,2.72,1.86A4.21,4.21,0,0,1,306.1,21c-1.8,8-5.39,14.34-10.69,18.82S283,47.09,274,48.2A5.85,5.85,0,0,1,273.4,48.24Zm26.51-29.16a.47.47,0,0,0-.27.1.63.63,0,0,0-.29.42c-1.72,6.52-4.75,11.57-9,15s-10.09,5.67-17.47,6.7a.44.44,0,0,0-.36.2.31.31,0,0,0-.08.28l.32,2a.64.64,0,0,0,.27.46.58.58,0,0,0,.49.12c8.22-1,14.76-3.55,19.45-7.51s7.82-9.57,9.43-16.74a.43.43,0,0,0-.07-.39.58.58,0,0,0-.4-.26L300,19.1Zm-18.24,7.44a4.3,4.3,0,0,1-2-.51c-3-1.54-6-3.05-9-4.48a4.22,4.22,0,0,1-1.89-5.84l1-1.9a4.35,4.35,0,0,1,2.54-2.17,4.42,4.42,0,0,1,3.31.18c3,1.44,6.13,3,9.26,4.6A4,4,0,0,1,287,19a4.3,4.3,0,0,1-.36,3.3l-1.15,2a4.27,4.27,0,0,1-2.53,2A4.21,4.21,0,0,1,281.67,26.52Zm-7.92-11.36a.79.79,0,0,0-.25.05.56.56,0,0,0-.37.32l-1,1.94a.4.4,0,0,0-.06.39.34.34,0,0,0,.23.25h0c3,1.45,6.08,3,9.09,4.54a.61.61,0,0,0,.82-.23l1.15-2a.54.54,0,0,0,0-.41.31.31,0,0,0-.19-.24q-4.72-2.45-9.16-4.56A.77.77,0,0,0,273.75,15.16Z"/><path class="cls-2" d="M315.37,50.3h-2.48a4.4,4.4,0,0,1-4.36-4.37V14.65a4.42,4.42,0,0,1,4.36-4.37h2.48a4.18,4.18,0,0,1,3.07,1.32,4.31,4.31,0,0,1,1.26,3.05v8c6.52,1.64,13.15,3.64,19.76,6A4.22,4.22,0,0,1,342,30.8a4.27,4.27,0,0,1,.23,3.41l-.7,2a4.31,4.31,0,0,1-2.15,2.45,4.26,4.26,0,0,1-3.25.24c-5.28-1.88-10.77-3.59-16.38-5.09V45.93a4.34,4.34,0,0,1-1.25,3A4.22,4.22,0,0,1,315.37,50.3Zm-2.48-36.23a.48.48,0,0,0-.39.18.47.47,0,0,0-.19.4V45.93a.47.47,0,0,0,.19.4.46.46,0,0,0,.39.18h2.48a.42.42,0,0,0,.36-.16.54.54,0,0,0,.18-.42V31.72a2.14,2.14,0,0,1,2.7-2.14c6.44,1.66,12.72,3.58,18.68,5.71a.48.48,0,0,0,.35,0,.5.5,0,0,0,.28-.34l.69-1.94a.49.49,0,0,0,0-.44.52.52,0,0,0-.32-.3c-6.92-2.41-13.8-4.47-20.52-6.13a2.34,2.34,0,0,1-1.83-2.32V14.65a.54.54,0,0,0-.18-.42.42.42,0,0,0-.36-.16Zm5.71,8.33.06,0ZM329.48,24a4.5,4.5,0,0,1-1.39-.23,4.38,4.38,0,0,1-2.54-2.16c-.14-.31-.37-.76-.84-1.6s-.73-1.32-.91-1.69a4.18,4.18,0,0,1-.32-3.21,4.05,4.05,0,0,1,2.2-2.6l.47-.21a4.34,4.34,0,0,1,3.28-.28,4.38,4.38,0,0,1,1.71,1,4.27,4.27,0,0,1,2-2.14l.65-.3a4.23,4.23,0,0,1,3.25-.27,4.27,4.27,0,0,1,2.6,2.14c.82,1.51,1.43,2.66,1.84,3.45a4.27,4.27,0,0,1-2,5.84L339,22a4.49,4.49,0,0,1-5.11-.82,4.17,4.17,0,0,1-2.1,2.16l-.4.2A4.05,4.05,0,0,1,329.48,24Zm-1.36-8.4a.59.59,0,0,0-.27.08l-.58.26c-.08,0-.11.08-.15.21a.46.46,0,0,0,0,.42c.2.39.48.9.86,1.59s.74,1.36.94,1.78a.56.56,0,0,0,.33.24.48.48,0,0,0,.42,0l.46-.24a.48.48,0,0,0,.26-.69c-.61-1.24-1.17-2.31-1.7-3.23a.55.55,0,0,0-.39-.35A.59.59,0,0,0,328.12,15.64Zm6.74-1.38a.46.46,0,0,0-.26.31.36.36,0,0,0,0,.34l1.84,3.41a.63.63,0,0,0,.38.34.55.55,0,0,0,.48,0l.48-.26c.23-.11.3-.18.35-.33a.41.41,0,0,0,0-.38c-.41-.79-1-1.92-1.81-3.42h0a.53.53,0,0,0-.36-.29.54.54,0,0,0-.48,0Z"/><path class="cls-3" d="M10.83,44.8A2.31,2.31,0,0,1,9.6,43.43a2.11,2.11,0,0,1,.15-1.8A68.71,68.71,0,0,0,17,16.43a2.43,2.43,0,0,1,.87-1.67,2.47,2.47,0,0,1,1.78-.63l2.48.13a2.45,2.45,0,0,1,1.67.83,2.31,2.31,0,0,1,.63,1.73,72.17,72.17,0,0,1-7.82,27.94A2.47,2.47,0,0,1,15.13,46a2.64,2.64,0,0,1-2-.11Zm29.28-.26a235.12,235.12,0,0,0-7.68-26.93,2.32,2.32,0,0,1,.13-1.83A2.2,2.2,0,0,1,34,14.61L36.07,14a2.52,2.52,0,0,1,1.94.15,2.45,2.45,0,0,1,1.28,1.45,215.92,215.92,0,0,1,8.34,27.5,2.42,2.42,0,0,1-.33,1.87,2.15,2.15,0,0,1-1.54,1l-2.69.52a2.49,2.49,0,0,1-1.87-.39A2.4,2.4,0,0,1,40.11,44.54Z"/><path class="cls-3" d="M54,25.64a2.43,2.43,0,0,1-1.73-.71,2.29,2.29,0,0,1-.74-1.72V21.47A2.51,2.51,0,0,1,54,19H67.35a.35.35,0,0,0,.39-.4V13.7a2.46,2.46,0,0,1,2.44-2.44h2.47a2.4,2.4,0,0,1,1.74.72,2.32,2.32,0,0,1,.74,1.72v4.9c0,.26.12.4.35.4H86.12a2.37,2.37,0,0,1,1.74.73,2.42,2.42,0,0,1,.74,1.74v1.74a2.32,2.32,0,0,1-.74,1.72,2.43,2.43,0,0,1-1.74.71H75.48c-.23,0-.35.13-.35.39v.57q0,8.68-3.76,13.68t-11.75,7A2.53,2.53,0,0,1,57.69,47a2.72,2.72,0,0,1-1.24-1.57l-.57-1.78a2.13,2.13,0,0,1,.18-1.78,2.3,2.3,0,0,1,1.43-1.09q5.61-1.47,7.93-4.71t2.32-9.49V26a.34.34,0,0,0-.39-.39Z"/><path class="cls-3" d="M144.73,46.93l0-.26a2.41,2.41,0,0,1,2.3-2.52c1.63-.09,3.52-.18,5.7-.26a.34.34,0,0,0,.39-.39v-.79c0-.23-.13-.34-.39-.34h-5.17a2.22,2.22,0,0,1-1.63-.68,2.2,2.2,0,0,1-.68-1.62,2.14,2.14,0,0,1,.68-1.61,2.23,2.23,0,0,1,1.63-.65h5.17a.34.34,0,0,0,.39-.39v-.57c0-.23-.13-.35-.39-.35h-4.35A2.51,2.51,0,0,1,145.86,34V25.86a2.37,2.37,0,0,1,.73-1.74,2.42,2.42,0,0,1,1.74-.74h4.35a.34.34,0,0,0,.39-.39v-.56c0-.23-.13-.35-.39-.35h-5.43a2.21,2.21,0,0,1-1.63-.67,2.24,2.24,0,0,1-.68-1.63,2.14,2.14,0,0,1,.68-1.61,2.27,2.27,0,0,1,1.63-.65h5.43c.23,0,.34-.13.34-.39v-.7a.31.31,0,0,0-.34-.35l-1.44.11-1.65.11c-.49,0-1,.05-1.39.05a2.48,2.48,0,0,1-1.76-.63,2.29,2.29,0,0,1-.8-1.63,2.18,2.18,0,0,1,.56-1.7,2.22,2.22,0,0,1,1.61-.78q7.31-.39,15.9-1.39a2.3,2.3,0,0,1,1.8.5,2.39,2.39,0,0,1,.94,1.63,2.42,2.42,0,0,1-.5,1.82,2.25,2.25,0,0,1-1.63.92c-.32,0-1,.09-2,.19l-2.32.24c-.23,0-.35.13-.35.39v1.22a.34.34,0,0,0,.39.39h4.3a2,2,0,0,1,2,1.3c.12.18.25.22.39.13a2.48,2.48,0,0,1,1.4-.43h1.21c.26,0,.39-.12.39-.35.06-2.43.09-4.39.09-5.86a2.53,2.53,0,0,1,2.48-2.48h.86a2.53,2.53,0,0,1,2.48,2.48c0,.26,0,2.21-.13,5.86,0,.23.13.35.39.35h6.3a2.35,2.35,0,0,1,1.74.74,2.38,2.38,0,0,1,.74,1.73v1.65q0,6.69-.07,10.76c0,2.71-.17,5.12-.37,7.25a44.09,44.09,0,0,1-.61,4.65,5.08,5.08,0,0,1-1.13,2.39,3.12,3.12,0,0,1-1.6,1.09,13.56,13.56,0,0,1-2.35.15c-.72,0-1.92-.08-3.6-.22a2.53,2.53,0,0,1-1.74-.87,2.82,2.82,0,0,1-.74-1.82V44.93a2,2,0,0,1,.67-1.61,2.12,2.12,0,0,1,1.68-.56,12.94,12.94,0,0,0,1.56.13c.43,0,.76-.28,1-.85a20.38,20.38,0,0,0,.54-4.26c.14-2.27.22-5.69.22-10.27v-3a.35.35,0,0,0-.39-.4H175.7a.35.35,0,0,0-.39.4,83.49,83.49,0,0,1-1.8,13.62,36.47,36.47,0,0,1-3.63,9.49,2,2,0,0,1-1.46,1.06,2.21,2.21,0,0,1-1.8-.41l-.61-.44a.65.65,0,0,0-.61,0,2.81,2.81,0,0,1-.82.22q-9.74.87-17.2,1.22a2.58,2.58,0,0,1-1.83-.64A2.25,2.25,0,0,1,144.73,46.93Zm6.34-19.64v1a.34.34,0,0,0,.39.39H153c.23,0,.35-.13.35-.39v-1c0-.26-.12-.39-.35-.39h-1.52A.34.34,0,0,0,151.07,27.29ZM153,32.94c.23,0,.35-.13.35-.39v-1a.31.31,0,0,0-.35-.34h-1.52c-.26,0-.39.11-.39.34v1a.34.34,0,0,0,.39.39Zm6.39-5.65v1a.34.34,0,0,0,.39.39h1.47a.35.35,0,0,0,.4-.39v-1a.35.35,0,0,0-.4-.39h-1.47A.34.34,0,0,0,159.37,27.29Zm0,4.3v1a.34.34,0,0,0,.39.39h1.47a.35.35,0,0,0,.4-.39v-1c0-.23-.14-.34-.4-.34h-1.47C159.5,31.25,159.37,31.36,159.37,31.59Zm.3-9.16V23a.34.34,0,0,0,.39.39H164a2.32,2.32,0,0,1,1.72.74,2.4,2.4,0,0,1,.72,1.74V34a2.4,2.4,0,0,1-.72,1.73,2.29,2.29,0,0,1-1.72.74h-3.95c-.26,0-.39.12-.39.35v.57a.34.34,0,0,0,.39.39h3.69A2.22,2.22,0,0,1,166,40.07a2.21,2.21,0,0,1-.65,1.62,2.14,2.14,0,0,1-1.61.68h-3.69c-.26,0-.39.11-.39.34v.44c0,.23.13.35.39.35l4.17-.26a3.27,3.27,0,0,1,.83.08c.26.06.43,0,.52-.17q3.21-6.39,3.95-18.55c0-.29-.11-.44-.35-.44h-1a2.36,2.36,0,0,1-1.66-.63,2.33,2.33,0,0,1-.78-1.58.21.21,0,0,0-.11-.2.14.14,0,0,0-.19,0,2.16,2.16,0,0,1-1.09.3h-4.3C159.8,22.08,159.67,22.2,159.67,22.43Z"/><path class="cls-3" d="M189.69,28.9a2.52,2.52,0,0,1-1.56-1.15,2.68,2.68,0,0,1-.4-1.93q.79-5.22,1.18-11.65a2.45,2.45,0,0,1,2.56-2.26,2.52,2.52,0,0,1,1.7.87,2.45,2.45,0,0,1,.65,1.78c0,.18,0,.45,0,.81a7.86,7.86,0,0,1-.07.8c0,.26.12.39.35.39h.17a.31.31,0,0,0,.35-.35V12.48a2.35,2.35,0,0,1,.74-1.74,2.38,2.38,0,0,1,1.73-.74h1.61a2.53,2.53,0,0,1,2.48,2.48v3.73c0,.24.13.35.39.35h.3A2.53,2.53,0,0,1,204.33,19v.74a2.3,2.3,0,0,1-.74,1.71,2.4,2.4,0,0,1-1.74.72h-.3a.34.34,0,0,0-.39.39v7.52c0,.23.13.32.39.26a1,1,0,0,0,.35-.09.91.91,0,0,1,.3-.09,1.84,1.84,0,0,1,1.67.29,2,2,0,0,1,.85,1.49l0,.74v.39a.14.14,0,0,0,.07.13.14.14,0,0,0,.15,0,37.61,37.61,0,0,0,8-12.85c.05-.21,0-.31-.22-.31h-.87a.5.5,0,0,0-.52.35,42.07,42.07,0,0,1-4.13,7.12,1.86,1.86,0,0,1-1.52.81,2,2,0,0,1-1.61-.72l-.87-1a3,3,0,0,1-.76-1.86,3,3,0,0,1,.55-2,39.91,39.91,0,0,0,5.12-11.29A3,3,0,0,1,209.3,10a2.56,2.56,0,0,1,1.89-.48l1.48.17a2.13,2.13,0,0,1,1.54.92,1.91,1.91,0,0,1,.24,1.74c-.06.17-.14.44-.26.8s-.2.63-.26.8,0,.35.26.35h11.56a2.46,2.46,0,0,1,2.43,2.43q-.13,8.22-.26,13.4c-.09,3.47-.24,6.49-.46,9.08s-.43,4.52-.65,5.78a8.07,8.07,0,0,1-1.06,3,3,3,0,0,1-1.44,1.33,8.05,8.05,0,0,1-2,.19c-.84,0-2.68-.06-5.52-.17a2.76,2.76,0,0,1-1.82-.78,2.55,2.55,0,0,1-.83-1.78L214,44.89a.13.13,0,0,0-.1-.13c-.08,0-.13,0-.16,0a40.59,40.59,0,0,1-3.86,3.65A2.46,2.46,0,0,1,208,49a2.87,2.87,0,0,1-1.81-.89l-1-1a1.91,1.91,0,0,1-.59-1.65,2.25,2.25,0,0,1,.85-1.56,41.64,41.64,0,0,0,9.25-10.19,50.43,50.43,0,0,0,6.08-13.23c.06-.26,0-.39-.26-.39h-.69a.52.52,0,0,0-.53.35,52.63,52.63,0,0,1-4.86,10.34A39.56,39.56,0,0,1,208,38.85a2.3,2.3,0,0,1-1.78.63,2.64,2.64,0,0,1-1.78-.81l-.87-.86a2.12,2.12,0,0,1-.61-1.74c0-.2-.08-.28-.26-.22h0a.12.12,0,0,1-.09,0l-.54.16-.54.15a.44.44,0,0,0-.35.48V47.23a2.53,2.53,0,0,1-2.48,2.48h-1.61a2.38,2.38,0,0,1-1.73-.74,2.35,2.35,0,0,1-.74-1.74V38.28c0-.26-.12-.36-.35-.3-1,.23-2.19.46-3.52.69a2.18,2.18,0,0,1-1.78-.43,2.14,2.14,0,0,1-.91-1.61l-.09-.74a2.54,2.54,0,0,1,.54-1.82,2.71,2.71,0,0,1,1.63-1c1.86-.35,3.23-.63,4.13-.83a.44.44,0,0,0,.35-.48V22.6c0-.26-.12-.39-.35-.39h-.65q-.3,0-.39.39c-.12,1.16-.32,2.68-.61,4.56a2.14,2.14,0,0,1-1,1.52,2.11,2.11,0,0,1-1.78.26Zm31.37,5.69a.18.18,0,0,0-.18-.09,47.08,47.08,0,0,1-5.73,8.69c-.12.18-.06.26.17.26q3,.18,3.78.18a1,1,0,0,0,.85-.52,8.45,8.45,0,0,0,.61-2.55Q220.83,38.55,221.06,34.59Z"/><path class="cls-3" d="M233.91,30.55a2.53,2.53,0,0,1-2.47-2.48V26.73a2.35,2.35,0,0,1,.74-1.74,2.38,2.38,0,0,1,1.73-.74h29.68a2.4,2.4,0,0,1,1.76.72,2.27,2.27,0,0,1,.67,1.76q-.39,9.6-6.52,14.79T241,47.71a2.57,2.57,0,0,1-1.87-.56,2.82,2.82,0,0,1-1-1.7L237.82,44a2.11,2.11,0,0,1,.44-1.74,2.19,2.19,0,0,1,1.61-.87q7.81-.64,12.31-3.19a12.18,12.18,0,0,0,5.93-7.36c.06-.21,0-.31-.26-.31ZM237,12.83h24.07a2.29,2.29,0,0,1,1.71.73,2.44,2.44,0,0,1,.72,1.74v1.39a2.46,2.46,0,0,1-2.43,2.44H237a2.34,2.34,0,0,1-1.72-.72,2.37,2.37,0,0,1-.71-1.72V15.3a2.47,2.47,0,0,1,.71-1.74A2.31,2.31,0,0,1,237,12.83Z"/><path class="cls-3" d="M271.49,19.82a2.23,2.23,0,0,1-1.21-1.39,2.19,2.19,0,0,1,.17-1.82l1-2a2.46,2.46,0,0,1,1.46-1.24,2.59,2.59,0,0,1,1.93.11q4.47,2.13,9.17,4.56a2.19,2.19,0,0,1,1.19,1.44,2.35,2.35,0,0,1-.2,1.86l-1.12,2a2.41,2.41,0,0,1-1.46,1.17,2.36,2.36,0,0,1-1.89-.17Q276,22,271.49,19.82Zm30.85-2.13a2.43,2.43,0,0,1,1.56,1.07,2.31,2.31,0,0,1,.35,1.84Q301.69,32,294.19,38.37t-20.44,8a2.46,2.46,0,0,1-1.87-.5,2.53,2.53,0,0,1-1-1.67l-.31-2a2.17,2.17,0,0,1,.44-1.76,2.29,2.29,0,0,1,1.6-.93q10.61-1.49,16.53-6.3t8.37-14a2.54,2.54,0,0,1,1.1-1.55,2.36,2.36,0,0,1,1.85-.32Z"/><path class="cls-3" d="M312.89,48.41a2.53,2.53,0,0,1-2.47-2.48V14.65a2.53,2.53,0,0,1,2.47-2.48h2.48a2.32,2.32,0,0,1,1.72.74,2.45,2.45,0,0,1,.71,1.74v9.12a.45.45,0,0,0,.39.48q10.21,2.52,20.64,6.17a2.49,2.49,0,0,1,1.56,3.17l-.69,2a2.43,2.43,0,0,1-1.22,1.39,2.35,2.35,0,0,1-1.82.13q-8.91-3.18-18.51-5.65c-.23-.06-.35,0-.35.3V45.93a2.45,2.45,0,0,1-.71,1.74,2.32,2.32,0,0,1-1.72.74ZM327,14a2.44,2.44,0,0,1,1.91-.17,2.38,2.38,0,0,1,1.48,1.22q.83,1.43,1.74,3.3A2.38,2.38,0,0,1,331,21.65l-.43.21a2.31,2.31,0,0,1-1.89.15,2.45,2.45,0,0,1-1.46-1.23q-.25-.57-.87-1.65c-.4-.73-.69-1.26-.87-1.61a2.34,2.34,0,0,1-.19-1.85,2.16,2.16,0,0,1,1.19-1.41Zm11-.69c.81,1.5,1.42,2.65,1.83,3.43A2.38,2.38,0,0,1,338.7,20l-.57.3a2.4,2.4,0,0,1-1.88.11,2.46,2.46,0,0,1-1.46-1.24L333,15.82a2.23,2.23,0,0,1-.18-1.82A2.34,2.34,0,0,1,334,12.57l.56-.26a2.45,2.45,0,0,1,1.91-.18A2.38,2.38,0,0,1,338,13.35Z"/><path class="cls-4" d="M129.17,37.63a9.42,9.42,0,0,1,1.87.18,7.84,7.84,0,0,0,2.18-5.39A13.5,13.5,0,0,0,131,25.08c2.12-.22,3.77-1.41,4-3,.25-2-1.84-3.93-4.66-4.28-2.26-.28-4.3.53-5.16,1.9A20.25,20.25,0,0,0,106,19.5a5.4,5.4,0,0,0-5-1.74c-2.82.35-4.91,2.26-4.66,4.28.18,1.54,1.67,2.68,3.61,3a13.53,13.53,0,0,0-2.22,7.38,7.82,7.82,0,0,0,2.37,5.52,9.63,9.63,0,0,1,2.46-.31c3.52,0,6.37,1.82,6.37,4.06a2.65,2.65,0,0,1-.19,1,26.31,26.31,0,0,0,6.75,1.16,27.23,27.23,0,0,0,7.46-1.32,2.72,2.72,0,0,1-.12-.8C122.8,39.45,125.65,37.63,129.17,37.63Zm-13.52-2.7c-.11,0-2.89-.78-2.89-1.74s1.3-1.74,2.89-1.74,2.9.78,2.9,1.74S115.77,34.93,115.65,34.93Z"/><path class="cls-4" d="M101.76,38.4a9.57,9.57,0,0,0-2.46.32c-2.3.61-3.92,2.05-3.92,3.74,0,2.24,2.86,4,6.38,4,3,0,5.49-1.31,6.18-3.09a2.65,2.65,0,0,0,.19-1C108.13,40.22,105.27,38.4,101.76,38.4Z"/><path class="cls-4" d="M131.82,38.58a10.42,10.42,0,0,0-1.88-.18c-3.52,0-6.37,1.82-6.37,4.06a2.44,2.44,0,0,0,.13.8c.58,1.85,3.15,3.25,6.24,3.25,3.52,0,6.37-1.81,6.37-4C136.31,40.63,134.42,39.09,131.82,38.58Z"/></g></g></svg>