<svg xmlns="http://www.w3.org/2000/svg" viewBox="0 0 77.49 17.26"><g id="レイヤー_2" data-name="レイヤー 2"><g id="レイヤー_1-2" data-name="レイヤー 1"><path d="M7.66,12.82a1,1,0,0,1,.89.46,1,1,0,0,1,.16,1,4.35,4.35,0,0,1-1.6,2.16,4.26,4.26,0,0,1-2.6.85H4.44A4.27,4.27,0,0,1,1.3,16,4.27,4.27,0,0,1,0,12.82V4.43A4.26,4.26,0,0,1,1.3,1.3,4.27,4.27,0,0,1,4.44,0h.07a4.32,4.32,0,0,1,2.6.84A4.33,4.33,0,0,1,8.71,3a1,1,0,0,1-.16,1,1.05,1.05,0,0,1-.89.45,1,1,0,0,1-1-.72A2.23,2.23,0,0,0,4.51,2.19H4.44a2.17,2.17,0,0,0-1.59.66,2.15,2.15,0,0,0-.66,1.58v8.39a2.14,2.14,0,0,0,.66,1.59,2.17,2.17,0,0,0,1.59.66h.07a2.12,2.12,0,0,0,1.31-.43,2.19,2.19,0,0,0,.81-1.09A1,1,0,0,1,7.66,12.82Z"/><path d="M16.69,5.27A4.7,4.7,0,0,1,20.13,6.7a4.72,4.72,0,0,1,1.43,3.45v2.24a4.7,4.7,0,0,1-1.43,3.44,4.66,4.66,0,0,1-3.44,1.43H16.6a4.66,4.66,0,0,1-3.44-1.43,4.7,4.7,0,0,1-1.43-3.44V10.15A4.72,4.72,0,0,1,13.16,6.7,4.7,4.7,0,0,1,16.6,5.27Zm2.68,4.88a2.71,2.71,0,0,0-2.68-2.69H16.6a2.7,2.7,0,0,0-2.68,2.69v2.24a2.68,2.68,0,0,0,2.68,2.68h.09a2.7,2.7,0,0,0,2.68-2.68Z"/><path d="M29.83,5.27A4.7,4.7,0,0,1,33.28,6.7a4.72,4.72,0,0,1,1.43,3.45v6a1.09,1.09,0,0,1-.33.79,1.12,1.12,0,0,1-1.55,0,1.11,1.11,0,0,1-.31-.79v-6a2.71,2.71,0,0,0-2.69-2.69h-.08a2.68,2.68,0,0,0-2.68,2.69v6a1.12,1.12,0,0,1-.32.79,1.08,1.08,0,0,1-.77.31,1.09,1.09,0,0,1-.79-.31,1.11,1.11,0,0,1-.31-.79V6.36a1.08,1.08,0,0,1,.31-.77A1.1,1.1,0,0,1,26,5.27,1,1,0,0,1,27,6.11a4.73,4.73,0,0,1,2.72-.84Z"/><path d="M42.68,15.07a1.06,1.06,0,0,1,.77.32,1,1,0,0,1,.33.77,1.09,1.09,0,0,1-.33.79,1,1,0,0,1-.77.31h0a4.66,4.66,0,0,1-3.44-1.43,4.7,4.7,0,0,1-1.43-3.44V1.83a1.06,1.06,0,0,1,.32-.78,1.07,1.07,0,0,1,.78-.31,1,1,0,0,1,.77.31,1.06,1.06,0,0,1,.32.78V5.46h1.77a1.06,1.06,0,0,1,.77.32,1,1,0,0,1,.33.77,1,1,0,0,1-.33.77,1,1,0,0,1-.77.33H40v4.74a2.68,2.68,0,0,0,2.68,2.68Z"/><path d="M55.12,5.27a1.11,1.11,0,0,1,1.1,1.09v9.8a1.09,1.09,0,0,1-.33.79,1,1,0,0,1-.77.31,1,1,0,0,1-1.06-.83,4.76,4.76,0,0,1-2.71.83h-.09a4.66,4.66,0,0,1-3.44-1.43,4.7,4.7,0,0,1-1.43-3.44V10.15A4.72,4.72,0,0,1,47.82,6.7a4.7,4.7,0,0,1,3.44-1.43h.09a4.72,4.72,0,0,1,2.71.84A1,1,0,0,1,55.12,5.27ZM54,10.15a2.71,2.71,0,0,0-2.68-2.69h-.09a2.7,2.7,0,0,0-2.68,2.69v2.24a2.68,2.68,0,0,0,2.68,2.68h.09A2.7,2.7,0,0,0,54,12.39Z"/><path d="M67.2,12.82a1,1,0,0,1,.89.46,1,1,0,0,1,.15,1,4.44,4.44,0,0,1-4.19,3H64a4.44,4.44,0,0,1-4.44-4.44V9.74a4.26,4.26,0,0,1,1.3-3.13A4.25,4.25,0,0,1,64,5.31h.07a4.32,4.32,0,0,1,2.6.84,4.25,4.25,0,0,1,1.59,2.17,1,1,0,0,1-.15,1,1.06,1.06,0,0,1-.89.45,1,1,0,0,1-1-.72,2.17,2.17,0,0,0-.81-1.1,2.2,2.2,0,0,0-1.31-.42H64a2.24,2.24,0,0,0-2.25,2.24v3.08A2.24,2.24,0,0,0,64,15.07h.07a2.14,2.14,0,0,0,1.31-.43,2.19,2.19,0,0,0,.81-1.09A1,1,0,0,1,67.2,12.82Z"/><path d="M76.39,15.07a1.06,1.06,0,0,1,.77.32,1,1,0,0,1,.33.77,1.09,1.09,0,0,1-.33.79,1,1,0,0,1-.77.31h0a4.66,4.66,0,0,1-3.44-1.43,4.7,4.7,0,0,1-1.43-3.44V1.83a1.06,1.06,0,0,1,.32-.78A1.07,1.07,0,0,1,72.6.74a1,1,0,0,1,.77.31,1.1,1.1,0,0,1,.32.78V5.46h1.77a1.06,1.06,0,0,1,.77.32,1,1,0,0,1,.33.77,1,1,0,0,1-.33.77,1,1,0,0,1-.77.33H73.69v4.74a2.68,2.68,0,0,0,2.68,2.68Z"/></g></g></svg>