<svg xmlns="http://www.w3.org/2000/svg" viewBox="0 0 47.72 18.71"><g id="レイヤー_2" data-name="レイヤー 2"><g id="レイヤー_1-2" data-name="レイヤー 1"><path d="M5.34,7.77a5.13,5.13,0,0,1,4.15,2A5.32,5.32,0,0,1,10.6,14.4a5.22,5.22,0,0,1-1.91,3.11,5.39,5.39,0,0,1-3.45,1.2h0A5.23,5.23,0,0,1,2,17.61,5.37,5.37,0,0,1,.06,14.83a1.18,1.18,0,0,1,.18-1.09,1.12,1.12,0,0,1,1-.5,1.07,1.07,0,0,1,1.14.85,3,3,0,0,0,1.07,1.56,2.86,2.86,0,0,0,1.82.63h0a3,3,0,0,0,1.84-.61,3,3,0,0,0,1.09-1.6,3,3,0,0,0-.52-2.67,2.85,2.85,0,0,0-2.31-1.19A4.91,4.91,0,0,1,1.89,8.75,4.67,4.67,0,0,1,.44,5.28V4.93a4.82,4.82,0,0,1,1.43-3.5A4.7,4.7,0,0,1,5.32,0h.07A4.67,4.67,0,0,1,8.25.94,4.83,4.83,0,0,1,10,3.34a1.13,1.13,0,0,1-.18,1.09,1.13,1.13,0,0,1-1,.5h0a1.07,1.07,0,0,1-1.11-.8,2.48,2.48,0,0,0-.89-1.22,2.39,2.39,0,0,0-1.45-.49H5.32a2.32,2.32,0,0,0-1.74.74,2.38,2.38,0,0,0-.73,1.77v.39a2.35,2.35,0,0,0,.74,1.74A2.41,2.41,0,0,0,5.34,7.77Z"/><path d="M22.15,16.83a1.18,1.18,0,0,1,.23.87,1.13,1.13,0,0,1-.46.77,1.11,1.11,0,0,1-.86.23,1.08,1.08,0,0,1-.78-.46l-3.57-4.69v4a1.19,1.19,0,1,1-2.37,0V2a1.12,1.12,0,0,1,.34-.84,1.17,1.17,0,0,1,1.69,0,1.12,1.12,0,0,1,.34.84v7.7l3.42-3.41A1.15,1.15,0,0,1,21,5.9a1.12,1.12,0,0,1,.82.35,1.09,1.09,0,0,1,.34.82,1.13,1.13,0,0,1-.34.83l-3.64,3.65Z"/><path d="M28.32,4.21a1.33,1.33,0,0,1-1.9,0A1.27,1.27,0,0,1,26,3.28a1.34,1.34,0,1,1,2.68,0A1.27,1.27,0,0,1,28.32,4.21ZM26.53,18.37a1.19,1.19,0,0,1-.35-.85V6.94a1.11,1.11,0,0,1,.35-.83,1.17,1.17,0,0,1,.85-.35,1.14,1.14,0,0,1,.83.35,1.11,1.11,0,0,1,.35.83V17.52a1.19,1.19,0,0,1-.35.85,1.13,1.13,0,0,1-.83.34A1.16,1.16,0,0,1,26.53,18.37Z"/><path d="M34.33,1.16a1.13,1.13,0,0,1,.34.83V13.43a2.9,2.9,0,0,0,2.91,2.91h0a1.14,1.14,0,0,1,.84.34,1.17,1.17,0,0,1,0,1.69,1.14,1.14,0,0,1-.84.34h0a5.06,5.06,0,0,1-3.73-1.55,5.08,5.08,0,0,1-1.55-3.73V2a1.13,1.13,0,0,1,.34-.83,1.19,1.19,0,0,1,.85-.35A1.16,1.16,0,0,1,34.33,1.16Z"/><path d="M43.27,1.16a1.13,1.13,0,0,1,.34.83V13.43a2.9,2.9,0,0,0,2.91,2.91h0a1.19,1.19,0,1,1,0,2.37h0a5,5,0,0,1-3.73-1.55,5,5,0,0,1-1.55-3.73V2a1.13,1.13,0,0,1,.34-.83,1.2,1.2,0,0,1,1.69,0Z"/></g></g></svg>