<svg xmlns="http://www.w3.org/2000/svg" viewBox="0 0 208.78 36.56"><g id="レイヤー_2" data-name="レイヤー 2"><g id="レイヤー_1-2" data-name="レイヤー 1"><path d="M19.38,0a1.75,1.75,0,0,1,1.3.55,1.72,1.72,0,0,1,.53,1.29v25a1.81,1.81,0,0,1-1.83,1.83,1.75,1.75,0,0,1-1.29-.53,1.77,1.77,0,0,1-.53-1.3V9.39L12.21,19.84a1.46,1.46,0,0,1-.22.3,1.48,1.48,0,0,1-.56.5,1.78,1.78,0,0,1-1.41.1A1.71,1.71,0,0,1,9,19.84L3.65,9.43V26.86a1.77,1.77,0,0,1-.53,1.3,1.74,1.74,0,0,1-1.28.53,1.78,1.78,0,0,1-1.31-.53A1.81,1.81,0,0,1,0,26.86v-25A1.76,1.76,0,0,1,.53.55,1.76,1.76,0,0,1,1.84,0,1.7,1.7,0,0,1,3.42.94s0,0,0,0l0,0,7.13,14L17.75,1s0,0,.08-.14.05-.07,0-.06L18,.64A1.71,1.71,0,0,1,19.38,0Z"/><path d="M41.6,9a1.81,1.81,0,0,1,1,1,1.86,1.86,0,0,1,0,1.41l-9.2,24a1.77,1.77,0,0,1-1,1,1.81,1.81,0,0,1-1.39,0,1.8,1.8,0,0,1-1.05-2.35l2.81-7.28L27,11.35a1.82,1.82,0,0,1,.06-1.41,1.74,1.74,0,0,1,1-1,1.77,1.77,0,0,1,1.39,0,1.72,1.72,0,0,1,1,1l4.43,11.64L39.25,10a1.85,1.85,0,0,1,1-1A1.77,1.77,0,0,1,41.6,9Z"/><path d="M68.86.23A7.14,7.14,0,0,1,74.09,2.4a7.11,7.11,0,0,1,2.17,5.22v.11A7.13,7.13,0,0,1,74.09,13a7.14,7.14,0,0,1-5.23,2.17H64.7V26.86a1.81,1.81,0,0,1-.53,1.3,1.75,1.75,0,0,1-1.29.53,1.79,1.79,0,0,1-1.83-1.83V2.05A1.75,1.75,0,0,1,61.57.76,1.85,1.85,0,0,1,62.88.23Zm3.75,7.39A3.57,3.57,0,0,0,71.5,5a3.59,3.59,0,0,0-2.64-1.09H64.7v7.59h4.16a3.59,3.59,0,0,0,2.64-1.09,3.59,3.59,0,0,0,1.11-2.66Z"/><path d="M89.85,8.71A8.13,8.13,0,0,1,98,16.84v3.73a8.13,8.13,0,0,1-8.13,8.12h-.13a8.13,8.13,0,0,1-8.13-8.12V16.84a8.13,8.13,0,0,1,8.13-8.13Zm4.48,8.13a4.51,4.51,0,0,0-4.48-4.48h-.13a4.47,4.47,0,0,0-4.48,4.48v3.73A4.47,4.47,0,0,0,89.72,25h.13a4.51,4.51,0,0,0,4.48-4.47Z"/><path d="M111.65,8.77a1.7,1.7,0,0,1,1.29.55,1.8,1.8,0,0,1,0,2.57,1.72,1.72,0,0,1-1.29.53h0a4.49,4.49,0,0,0-4.47,4.47v10a1.81,1.81,0,0,1-.53,1.3,1.86,1.86,0,0,1-2.6,0,1.81,1.81,0,0,1-.53-1.3V10.57a1.84,1.84,0,0,1,1.84-1.84,1.71,1.71,0,0,1,1.13.41,1.85,1.85,0,0,1,.65,1,7.76,7.76,0,0,1,4.51-1.39Z"/><path d="M126.37,25a1.84,1.84,0,0,1,1.84,1.82,1.75,1.75,0,0,1-.55,1.3,1.72,1.72,0,0,1-1.29.53h0a8.13,8.13,0,0,1-8.12-8.12V3a1.78,1.78,0,0,1,.52-1.29,1.85,1.85,0,0,1,1.31-.53A1.81,1.81,0,0,1,121.88,3V9h3a1.76,1.76,0,0,1,1.29.53,1.79,1.79,0,0,1,0,2.58,1.74,1.74,0,0,1-1.29.55h-3v7.89A4.47,4.47,0,0,0,126.35,25Z"/><path d="M141.47,4.8A4.26,4.26,0,0,0,138.4,6,4.25,4.25,0,0,0,137,9h2.93a1.74,1.74,0,0,1,1.29.55,1.83,1.83,0,0,1,0,2.58,1.74,1.74,0,0,1-1.29.55H137V26.86a1.8,1.8,0,0,1-.52,1.3,1.86,1.86,0,0,1-2.6,0,1.81,1.81,0,0,1-.53-1.3V9.28a7.84,7.84,0,0,1,2.38-5.74,7.85,7.85,0,0,1,5.75-2.39h0a1.79,1.79,0,0,1,1.29.53A1.76,1.76,0,0,1,143.32,3a1.81,1.81,0,0,1-.54,1.31,1.78,1.78,0,0,1-1.29.52Z"/><path d="M155.35,8.71a7.84,7.84,0,0,1,5.74,2.38,7.85,7.85,0,0,1,2.39,5.75v3.73a7.82,7.82,0,0,1-2.39,5.74,7.8,7.8,0,0,1-5.74,2.38h-.14a8.13,8.13,0,0,1-8.12-8.12V16.84a8.13,8.13,0,0,1,8.12-8.13Zm4.47,8.13a4.49,4.49,0,0,0-4.47-4.48h-.14a4.47,4.47,0,0,0-4.47,4.48v3.73A4.47,4.47,0,0,0,155.21,25h.14a4.49,4.49,0,0,0,4.47-4.47Z"/><path d="M171.74,1.68A1.78,1.78,0,0,1,172.26,3v17.6A4.47,4.47,0,0,0,176.74,25h0a1.71,1.71,0,0,1,1.28.53,1.73,1.73,0,0,1,.55,1.29,1.75,1.75,0,0,1-.55,1.3,1.71,1.71,0,0,1-1.28.53h0a8.13,8.13,0,0,1-8.13-8.12V3a1.79,1.79,0,0,1,.53-1.29,1.86,1.86,0,0,1,2.6,0Z"/><path d="M186.27,6.39a2.06,2.06,0,0,1-2.91,0,2,2,0,0,1-.61-1.45,2,2,0,0,1,.61-1.46,2,2,0,0,1,2.91,0,2,2,0,0,1,.6,1.46A2,2,0,0,1,186.27,6.39Zm-2.76,21.77a1.81,1.81,0,0,1-.53-1.3V10.59a1.76,1.76,0,0,1,.53-1.29,1.86,1.86,0,0,1,2.6,0,1.76,1.76,0,0,1,.53,1.29V26.86a1.81,1.81,0,0,1-.53,1.3,1.86,1.86,0,0,1-2.6,0Z"/><path d="M200.66,8.71a8.13,8.13,0,0,1,8.12,8.13v3.73a8.13,8.13,0,0,1-8.12,8.12h-.14a8.13,8.13,0,0,1-8.12-8.12V16.84a8.13,8.13,0,0,1,8.12-8.13Zm4.47,8.13a4.51,4.51,0,0,0-4.47-4.48h-.14a4.47,4.47,0,0,0-4.47,4.48v3.73A4.47,4.47,0,0,0,200.52,25h.14a4.51,4.51,0,0,0,4.47-4.47Z"/></g></g></svg>